<mxfile host="app.diagrams.net" agent="Mozilla/5.0 (Windows NT 10.0; Win64; x64) AppleWebKit/537.36 (KHTML, like Gecko) Chrome/134.0.0.0 Safari/537.36" version="27.0.6">
  <diagram name="第 1 页" id="SBGupG-oavFQODqSoa04">
    <mxGraphModel dx="2006" dy="943" grid="0" gridSize="10" guides="1" tooltips="1" connect="1" arrows="1" fold="1" page="0" pageScale="1" pageWidth="1654" pageHeight="2336" math="1" shadow="0">
      <root>
        <mxCell id="0" />
        <mxCell id="1" parent="0" />
        <mxCell id="juJ2ZIPSlug3HuvlYxke-1" value="" style="rounded=1;whiteSpace=wrap;html=1;fillColor=#f5f5f5;fontColor=#333333;strokeColor=#666666;strokeWidth=2;dashed=1;" vertex="1" parent="1">
          <mxGeometry x="708" y="360" width="350" height="220" as="geometry" />
        </mxCell>
        <mxCell id="juJ2ZIPSlug3HuvlYxke-2" style="rounded=0;orthogonalLoop=1;jettySize=auto;html=1;strokeWidth=2;strokeColor=#D79B00;" edge="1" parent="1" source="juJ2ZIPSlug3HuvlYxke-3" target="juJ2ZIPSlug3HuvlYxke-6">
          <mxGeometry relative="1" as="geometry" />
        </mxCell>
        <mxCell id="juJ2ZIPSlug3HuvlYxke-3" value="" style="shape=image;verticalLabelPosition=bottom;labelBackgroundColor=default;verticalAlign=top;aspect=fixed;imageAspect=0;image=data:image/png,iVBORw0KGgoAAAANSUhEUgAAAFMAAABTCAYAAADjsjsAAAAAAXNSR0IArs4c6QAAAARnQU1BAACxjwv8YQUAAAAJcEhZcwAADsMAAA7DAcdvqGQAADAySURBVHhe7ZxpkFzXdd/P9Dr7AsxgXweLREpkKEoqitCWSDEjR7KkchbJW+xIFZWdKqeSSpwPqkRGnFRUrnKSshM6JVtSUiW7KonWULYsO7FZSixSNmmJBE2CBEkQBDAABgNgMJh9enom/9//vDsD52u+5va8fu/de/Zz7rnnvu6ennZv3+bGxkZsbmxG1HqCV61WC/q43tSL+56I6G52BRdRFxzgEbop8N1uXtdrOm8KH4DEj83N6IEAVDbpM0Q06vXEy8Gtxi18gKtDW/jGFU5KyFXy5kCeLjoIrEfIwDeMBzx0wK9pXHLoyk1wmxpnhDfElqYaB194HkfuygqVCObBhQkB200YDdh8hhCxek8aAsEMqiH6uhvd6HQ7ZlqERVuY1QCS4TY592DE7pYhQVgXDGaGQRE0JEC70RCJNEmtVheduq5QAMjKEKKHwslCjtQgVC2d5LLs4tGRQ5DLsugeBwALvS1HiA40cfa6zpuSE93EOerqq/UgD3QyWHAA79BbM336kVMXJic9JVMNGuoDuqfZaoMhYFyTngIeGehDmRxH9IwAxlHGQGrFgzDa8rZgawjFvTpgmooR6XWx2lCkSzkkg14yrDCBAqcn1nGsorkoWHgB1VRkY8jESDnBwZmAWEH1c6YRrUlvmxeG6OreXbrvER9u6OtvtWKlsy6aChLJYAAA1Zi5zEg6uWZMdyah425lamYMIooznCO0iisEuAZG95DF8927o3J9XX26VGMMpsWgnIlAG0aHI7viYliNg0vENupVhEkh4LnGtJ3uumkJwyfgjWOZkSjji4aBMRA86MO5yG7+6jZdMHQNFG8rHc1GXVhVmvGzEf3A5AxCTrQxsqaGboC1L8V4vZuRsy6B5Rg1opJwTzjdigCCZX7B/41624QRH5owaEqxVr1hPI8BKzoF1/jWAKIcimBRIGKgQ1/mb9Fv1KuZ0SNempZEixuj5R1ScqJ4ZBpKeVG+YfdlGnAK0d2qHI5gJJwm091ibEZTvGwLXSO/6epIRyr1yTbIs53T1e9pjpK6J2xLvkxUBMwXvXgBJRzWakBgCAsmgQxU6Ze5DtErkyi/FFwbwcZiFKXuahpiMQTXC4voEJGlbU9tGlNNKUMylAVUQpp2I1cU62N0hlEcZ3BreXMGkI4wIIaHH7YpfQgELPpspyS/VUdq4HzqiJQAxEhHXkKwBgIKCA9wzxjEQMgcaNPKkDrLkOsoL7rwgGFZUDBekygQNI3IzpwnGhvKRTgPehqzaRnTDfjoSsrgniixFBpfrwy5blq6oM8zhmtLmq8u+nRiw/3bBtObeFKV5OwgnTk12fHiIhiCAzTSArPAhoQBh/qIYi9ygoI+jjdeS5HpqVcxwhyoxnUmfY2JMQ2CZuC7bOA1ENR4iCMcvK8+hPR0NX08m/AWyg1+eZ1GzutUgHsckSknZWERqWt1VerRi+izwcH3qC9MEl5UElbaxkpOMqMdzp0N6sBJh5GDEa+pIFhfl84VHTxKcCB75v6kZwMzrBN4tfQlqxrlgRAIfaJGBBC0CwO9EN5TBiw1q6BQrNeYuhkdGJqD8iO9aVA3LjsaA4/phKEQlWlLgyrRAxwszAZ4HTaq4SNWJQ/RhHFBgg/KFPnaWoFrkqmDQ8EBxlyh7yVPV0ATYZLJBu1RFGeZQ7zZBpQ9GgemKz3RD2PimGYj5cHp1MqpnfTKMkJolZVhSFRVxo9Wo2XWeIGDvl4JLHryMsaVcvIkuhEF4maloEkU0TIaEVSR5WhCcA/ZaJk2qms46IyQKOlShl7TRwamv3J3FVHwAYdr0hALJimElr1cwDlnCsb0NNcLWswqHJaGZJTDSDYkY3aYrqlFubA+jNqR6ihsmu1eX2JxM2BaCKMpoK1imD4TFSjIJkRcgYojCoNsGD3vq+ld3ZdpQUO9NGE2+HBsaEqT8IHkMFXh4uCcroVG4ZdQGD7tTsTZJWlcOQ4YDOdWkQA7Rcwo9WKnPAsdjM6Qi3F4C94zruKN0YnoEmS5uUBv6OkK67tkEBlySccLRBbL3tWYswyjE0JzW683HZ2SASoiCvmcbhiRBgNEw/Ol3IFW+lrjVYQ5Ylhc1C2OqZRoIJcXIPgKjoIFiijHVC70t1ZpHTn1sBPuTkOpVDXfDFKQgIRo6sY0hwC6GAd46wYPpMMyCjLk1RhlVLoNGGgJPUsjLKxBEc5uGsg0hMzopCONSqu8KS/aAXq3NDROggPWk6bqzuZB6+NpZ+0wRkYF4zgFIxKIjgbRIU91vBBxVplVyQMhlDGm3nBYpoZsWzLo8HQVD3iSDqyT+nF81tkpV1Ir72bv/rsbciB/QqScNQgBnNs7FMrS1oTUxxiNEsWJWS8WJ4hnNOAbIgwjVIxNE2HUoc6maELPHrRUKKiXDZmR5HyrlgaFfu7CZKqoax+/SsrRa52pKBq8WHWJHPjVJRO6sFggE5iws5EEj7sJFagz60gB4GPgQo+IA6JM7xI44HKflQlO5B79tejKwfACtqdBaWSMomhpEJSgVR8KU+Nl1NCTBD21q5wBDv1IhYkNqxeCwqylqYEz7VHwgC1Nl2lINQmMoJ6mkgG6SYnG4iPjrme5BGLyEQ8iVnLa5SgpgxU8+LtOJmrNRiN2AukKelWkWhGil8vEtSGFS/Bwj+MzjTFjk45nWUOCIBBDG4SfrovoHqrOFPQ2rEBK1PG0BTi8sy2cBMK4YOqttim/CQ9BeVqDUlkOgSPQZJJnHfZw9viauxKt9Ektn3MmEN3AZXQ2FcFlpm3zBI9pCBb9utZVXytzdUdGyFTFuN4d2Wl8ejAi5R+6eddkrNSXawycM1n8CBIGnGQFI3SDpleo5xqOBDf3EXEm412G1ZNxpJKiQh7TPa2HKSpATx26ENKGZSXEqOnhBMcwBVAKKp9tNRyA11UDM0pJ5JwoeKZrTr/cgfg5gmCKg6Dn3OrLNBK7NVbi5bVMa45knf1SvyNNcEBDh8W061ILbI0QLLIRMBlSaXhY9tSbrU3nDB0IBpIjrwgkFGSvaz7Qg9EtOIxNOHG2z7T09N0jvGFY6DrQGFGfnalIRmmMhjPglNO7GI8Fh4VlmyLvzAxyaMqLo7iGSUVDgqfz02lpMmrnplOWZ5IqEq/o6qehm+UTYLEJwcKit6Ut42rEI3jgMOIZ5Cmje09RU0mCICFUo44QOe1I+EylUn6AgzOABJdxrpsSGEGkir0LsZoUtcM4yzCeOqZcngswXclPjHe1pevE2vqqebGwQBdZmc4uqdwHaaQUD5Fm94YRyYW58IDDXj+DANres+sasbOCSVnySZNkQkaNOWWILuOZvnLHZqcbJgMDHJyttCKjSChMwPTB+Rl9CJZIrPCiZzhomAhaqJMpk8mYA+OKuv7WJDCgLTEnVdCyGMcpCJgkgae+ZNeSU6oba2urHhsZbsfEjh05s/zUKWLn2HDc88bj0WrnbgRlMFnSQ9ZML8ivobx2hGb0w5+RDIaihXZ1TaUzy5pGA4YHwj3YxzDYInWFp2eSEDkwNLNGutROQwxkCMHK97rISI2YGBuLucVFEe6JtohDECPzwtMk4BSAKK8e7YsAL7zsiKPLvWClSnDi4xD3pRDuB7bR34of+cAHY9fYeNy6Padp2YmJPbtiYt/eeMPkiTh+YF9cuHrd0QsORmQd9CzTPa4l+gfb7VjtrImD9Klkh76jz3yJ0FxCcGbqJAMKpjiqI2IN7Vby2YXoyKue4o5q6GJ40cmnRhpSR5YNREoJbcQyS6GmGWy0SvMiiBug2e3miBY+XXh8k+hDCd0zBeFBYi9oxbw2Rl89fu6nPxFPPPV0HD5wPJ55+sn44A+9P0LROLFjd1y7OhU378zH+upqfPeJ78WNuXnJkhFDpHiFl6JJUm+WS2dymc4pN2fKL2Zd5kwM1Gy2lAbWBMYUzqjOJlwiVfpSsQL9fzdCyhflU0KmNl2OLggS9gJjm9VQsrZHsQq9GBI4M9Khc6n9fNIZoT3GfXWdhhQ/0OiuBMOQbU23T3/q52Nudi5OHDoS169cjBNvOBn9I4OCUK3aasb+gwdjoK8V7d5WvP2hBx0IyGtelkdN51wguebIgIA/D2mgRaQRw6SxsmmwIWmCc3C5mYBpsshxzcYFGs6d1kL0NGEd3jDGM/kEKHfAPTKajauGUXNqZ4TC3GWHIqI8OadxDUrCqa8yngVQP1A81rOw7t2mV++vxz/7h/8kNjSvWHH7+wbiwftOxkc/9EhsqEhfWFiEg+U7MTkZ7f7BePncea/2KOmpJog85/awzB6nMBubSiR14t06SYftKY5RU/akpubUYMpbtXLXT50xKqEmWBETajJJAD7zYaWTcBrB0LCALatsBi3C5S6Gh7TgFYI4xI/XJE9LecX81YetgaMOhD4yQjUFJOcIob8W/+rT/zxWRPfSnRvRNzAam51u3JpfjakrU7F/z87Yv3sPqFauI3/cnL4RFy9fig+9731x74mTokNxDWXoY4CMNq7pzoVyO4I5ZURn6kEO9HJeFRb3ZUFLurqXMp61nurorrSosx3RrLdOM0bW8N5cXm+ZaN5Dg22gldc7kVT5QkZKRi2VKq4ETBIYwUsoYAB3mSIHZdlhQlYAWjxIbg7W41c/80tx4eKMFpvp6FnviekbU9Fo1WKluxJTMtrkoUnPEhYHhP/N//rlePaZH8QPP/KBWFlfiZHRYZfSt+bumA9Pd4ginJkyI4P0Uz93uZdH2tJkeAnFfa7YiubqGnxg03hpCw7SEjMx6YpPfm7OEO/JlkPDQkylec6Hd9nDgli876ZxvFOYkSZ45O9cqz6MzYrNAgRsUYwr7WWjOVCPXzn92bh6aTpuzt6KhZXlWFmZj/vJk4OjzCxFsxQSOZdqMuU3Hnsszrx0Nh5553t5FuadmEd0fv211+L8xUsypFhgTLV8ICIXYFvLmv2WQXJ6sbJcaTjswD2zLKOTByx3b1KqxmVRR61GHZi2UY2lqHTupDRAPEeTLuVFThiXfrO1x7hl+iKoBBQQDxgYYBUkUteU0HNlxYMg6FKEBgfa0dm3Gf/5N34zbl6bjaXF+XjptYtx/vKFeOtbHoz20A7z64hPrckMkFN1/NbXH4s/lyH/+l9+j6yEw9TfxCjIrwW/t88G0yWMMpIlC7y9UAmlPKJzxKmiwEmGVwB5glvOsjGRHtKPcQzPzCWYKI4SiRqzWnN4RtgDAP1qFNZr1YIBYGHCOEJZTMEgPFCs8G0dWTIwpDHBsPrzFRhJWtFQ4wJFpRTi/c/Pfzf+1t/4ybg8fVFljnY7ndvKf39VBXQzmj3Ki1ICddakLIvM6y+/quNc/NSP/micPHpC/DOdNJQ/4c+nni+++rJlsJWJQFuR2YQoOJ4HLdpCin+bXUAKrZOoYWz1gw698pTetNEXJ4gW9wQKtgCPLS9R3FNvtODqcMaT5BvKG8iKt4HxRIpXmUUES3lEM9lK/vI4DjobrNoeoCVzcmRjsBG//Au/GANDQ/H0mafj1z/3xXjvu0/Fux8+FRMT43KEIkqzwgW9ZBKRuPDy+fjS174cf/PDPxKTk8ejqxWIVf8HZ581X9rj3/uz6CwvbfO1IXOMC6covXIBkXGlg5+9GggibFyI1pyJjnDhkKNLagOXg1s/nwXbcI5cLQCKIPKKIWRER6boO7eoC8PyDktWeXNSM7TlkjN0zoQMGfIXCnFdXCBBVeC1h1rxy//0MzHUbsX//t4fx+rcarzzXaeiZ3A49uzZLU4kflZr8lXL02fu+oym91fj7/3dvyNjfjCaqjVbvaoN27W47433+OHx5StXgg9RZAqxIt/JCOJNMCETBiLquEY9+rnhCZbuuNFfpoNibM8wRtSJnvmRNjk3McDhiZrp6qi3mq3TyQD7Y7RNF85Zi3Hc1WACYb0YMWlHDlM5Synaxgbf0UnwIhhPeFrDrfj0P/iFmLs9H8+++Odx49admJq5ou3qUPy7X/oXceT40Th/XnXj2npsanFC9j958qn48jcfi0/+zI/Fex56p1bMRowMDsadhXnT3RD7dnvACo72D8XV69NpOPFtMNMsG8oKgPBRyyfm2ecZ6aaz+BEsGZe8ZyDkI8acqbRcXOU40+G+oqV2mpWYIz8+7dpzDJu6DhByBcwYTWb05ZnoKat519/dSSNSNoCLIftH+uIffeLn4saN2zF7Yzqeevk1rS7L0RgdjZ/98Y+b4qAi7t573xTnXj0vUhvx0pmz8fhTT8ZP/8TfjgcffHssaWov3FmInTtHo0+7n8XF5VhTrq2x0iKYDL1jeDCuTl9DKpkRo5K60iysB9y3FE25CFXGQFadM9eiBWfKK6oA3VH+VC/skLqpnzOw1TjLt+pMMTQd3tJgPktCrJ6JV2EsuAQxsMugzCUcCccUr4bNtNlqRP+Okfjkx34qZrVFpPx56rkzsWOgFUcOHIxHTr07NuT5uYWlWJcjO1pE3nHfm+Jbv/N4nL96IX7+k5+KN97zBhlxyfz6lE9mZ+dV1PdpweqqxtxQTXo9xsbGYuralRjfuUuRveZt4eqaDC0Z0CHzWsqWhsyoJNqQvrxTweBIVwGVwTAV+qEWOCzEOIU+B5cG6ppJMmb9tJUWMsbC8kQZU4z79GoVhaYpdGFn+aRL92FIyihC391mzT76HhmCenDmxs1YWbgdf/bC89qtTMbJ48dlkOG4JQNPDA8LOhP9QK0dT/zR4/H73//j+Mcf+7gcMeEpzZTtb9djWkY9sn8izpy/GMqa8eqF1+PkocPx+tWp2DG+U1Ha0XlcKzx1MU5aFFW9JGhX0xw9/S0OCZpPxVAg+21ibm22VCT34EQijlDqEFyqjIPAzFlNJzYzIEaksAUiWeisa6YKdw2VT6x03snwEjycWb0hksY0TTUxUufErvE4cfR49ChSZhQ9f/j0c/HwW94Se/ft17Ysn3YrW8dzr7wSy6ur0V1ZicuvXojT/+FzcfLIsVhQ9M1oWq+sLEar3YyVtW5M7t0Rl69dV2QPx53ZhTi4f6+iteat5o6hEW8Edo6NxObIiKZOQwsVZVBKxedRRCWLBvqhR4k76tnUh+XEZpDudy1I6mem+qMSvdAXvTEqzcZttVqQMIFkSasMCSW1jNQ0MttOrsxAGJQ6aywYYuIGA7127ZmIk5MnYnl5OXo1PV95/fX40F/7QPS0iYj8aiGrI/t7P5TVsXJ7Ib7x+78XH/3IR+J973qYOaWCvRlLSgG1em+Mj/bH7O1ZwfbGWZVKQ4N9MaYq4PrMtejtH4wfvPBcHNq9Xzl5Robs0WJ2QWPX48VXzssoGUHIzTOCStCMVDuVlqYtSxYaEhQsaAZGXxmVwGOcp/+2A3bSqd5stE4TcTwAhQSeYbWDMXtbLM6jekg5JkWYArYkYPjkDmfbGX197RgaGNI++Xa0VOK8eOlyfPzDH44NKegvjgIoz0CTiMfTF7QgffuJ78Tf/5mfiFPveMhROCZjzcnArXordo4PxtrckrzfG5cvX4ue/t7Yr8i/cu1yHN97OJ56/vl44+TRmJu7pdW95adODW01683eGBsalFFnxLL6ggIGcNsOGJvP+hIo1Zj7Mn759nLqTHBBIucvYxgUKvV6s32aTwOTQPIhdzDsEkJnwrt8HOoHvWKKh1y06mBhwKCMg99VvlpZXfbXsOe0Yv/khz+iUie3ZpRg0HAxLHQi9LtPPhHPnjsbv0J5dPhYLGmFxiHLq2sWZmhkIG4qVw709sfMzevCb8Ub9hxUenghjhw6EWfOvRiHDuyJ3kbbAgwPDcfFaZVcO8Zj6vrVGBvdYX435dwSBORLdjhZ9sCG/jRkFuPYgCNtAJ53OhW+PwuyUbdhXRrBiDvsDJCfuGAcWz+jtUwRf1pYMUtPcpUPBZw3TDYFamrv/OMf/ahqQUWjaPtPB7CUJ10tFr/1u9+O27evxxc++y+jb3gkukoZw319cWt+Pga1z+5TBN6eX4iJwZE4M38jBuv9cWBib1yZej2Os/BcuRi9I4NxcHR3LM7fjJHRiXjuJS1ycsprly/F4QP7YqDNfn0jZm7NxaochI6pX0abXzp7TbC+qYXfGZfBMskRAPlhnetynVNb7KdZ0KBod0dGXT560xiG0z1jGBIkjFk+faQl84wuE3RDGB44tOOR979feW1YKUT4Gma3QapoVDnzq994TPl2IX72E5+QIG2t7oMpg2bKgHJlTcacuTUTg/0jsbQ0H/v3nYz9I8MxNXU59hzcF/My8ppkOzK+J85PXdD4kXjmhWfi0MGDWrQ6MaA0wS7q9vxt75LeeHTSzz+JeHTxZz1qIuGIzN0d+mf0cTDY22pbb+CsOmMgMq6r7FaweVVWy8+t01BZoPPoixUa0DSWp4JHcjyjFQGozdzlVpNB2oPKVZpefPKY/t70c9IW8Cq+v/Z735JSy/Gpj/2Yau2WFpnlWJqbE+V1Tz0lvZjRNrK3PSyKG6oZFRFr89oyXot9k4OxvHAnFlZX4p4jx+NPXng2Dh86GC+88nwcVO06MjwqNZRzR3bE6spyDA8MqMhvR+9QfzygGpbat0eLG9FVVuVUTHLKwP7sK/9s5fKZOQ7gjMGdazkElPW3UwefTmImBt0nZZSqdQExeyfJmikGr7lYT8OTT3N1pFWpQDuRe44pinbtzs2AQHEKAjS1//tPX/lKrCyvxDveer+jqKfWVIR1Y13GWVhdj6GhAU3faUWTdjnKcxjk4P4D8eTTT8tJE5rq6/GhH/6wxu7Et7W/f899D8SVmaux1qO6VtH58sVzcc/hw/5Elcd2733ooVhcWnIlcOjAIf+2Z3r6ug1D2sqFRjeSnfO6ZKGudQipo+W0l6FEUe9vS6u/RC842FD9zdN+FkiIp/kMQHItZQBGzp+N6FJj3tibUMYoH+RXmBZoVEU457n5udi7a8IC+JGc3n77q1+JersRD7z5ftO/MnND28MxTzHu1zqrMavacqDZrxw4K0fVYs+eA/Hd739fNevh6G+2Yn5pQ5E8H2dvdePoRH+sdlcVuRHHVBa9cvHVODY5GTO3b+N5ydpVQX8lTt5zTywvLmg7eyseuPdeXS/G1Rs3LCdphXUhAyTXDS8uKG5d1avLNCBRqKCpNAaeMWxWbytnAsQMB47BXN/yGSLIfDUmCTHOSDKlD6I95NYqNcB+eWWV/OHrmzLM7omdUe9EfOnrX4/h0cE4euwEZaD44VUWhluxf2IciWJxeVUG3YyFxXmZoSZn7Iqnnz8TRzWNRwfaiq47cUAR/9z5s3Hq5M54TYZdV5Qf3380zp57Pg4Jbvb2HPV69PYNSJZl6d4Tt1QFvOut74gpna8rKt/2l96ivhva3s5lgNhYaZQ0pHSh36t12sMG0zURmo0x3qsxpjlTMw2UaNT4tNwyMob1sw/U8qiNBE4vC1FaOpnSWDVhQPfN6Wvx+JNPxuTRg7Fn74Foi0OPknq7xfQRsDw5rSgZGBiRQI2YXZhzrbhzaCxen7oY+/bs1VTDMfNx7OBkPPmDp+PNJ++NazNz8ZYHxlXLDscPnns23nTvPXFHEVnXrmd+ccn5eXhY9al2YEzl81r5T73jbTF15arq06vx8H0Pxv/6/tMyJJFUJM/ciIIOFNGwVrxx1uEguktff09fs85FO/kgkRyaes9VjsSKofKJM8bFU/ktNgzVJ4OUz0YwrutNXXi6i8myImZFW8Rp7csfvP++aLSpA7W2DA7IYIsq7Eeis7Jk2H07J7SX740rMnxvX6+2i0Mxr3y5b9++2OisxcLyYuwb3xvfPfNcPHT/m1SX8hGvVv3uWKxszMWB/W+K66ope1SOIU+7UfM3ORTeWnC0Gmu7Siq7Mn0zfujdp+KV1y7Ef/zK12JtSZGrF7oyO4EhNnLDQuCgby5AaFXe+1ot7d7YrKTdsI2M2czSaKtoyumJQORLA4kgxiJGuaex4q2ud5xLaUxXojfTAn0Zzfm9zlrs3r3bSZ3k3lnfjF1a6edUS7ZEDkU2FeWvK1p2jQ6rYJdRtSXcJQMvLS8oV3dcW/7p88/G0SMHo6Zw3oiOVvLD8QffeyIa/UPRWZ2P3UPtuKMSimeebUULitzQVpSPJwb7+2N5bTU2kKfdH7uiEd96/HHpiT6pE0pSY1MaYQPrLN0Zz+8W5XTGDi6fgHH8Ai3jN1v82oIbPsUr+1TuqTPZJTCcxO09nbFn7ldzSlBO+Mk6pM1cV3IzEBTmOIan+fe/+T5XCozwqGF5rRNXr16N/sGh6NfU3KeFhqjEMXv37Nequ+w6dZ8ccfaVV+INxyZjWNN/Vbz37zsUf3rmmTgxuT/GVdAjww3t0a9evxWDYwNxcO9+Rf2aYeeVk/v7+uXEpbizsBKLKt5/7fNfdDorBkIPgodPHPx7SglPzbtePZ+lGUY3aEj5tzWG1dWU9pQzbV2I5ZMfAOgjhEu0wTDrz6SMefEWRiL63CdYHELiBo4IJWVQy1H0Tikv7pnQ6q7X7ZuzcfblVxR5y47yVm+vP/Pmq4hjw0Px+vQV1amjMdo7FM+/di5OHjka62vLsSJeu8Ym4tmXXoyJvTtjQgX9imZIX2Mzdo/vVhm1FtdFe01wO0dGVQKvavY04o5mQaikqask+dePfl66yJTSNR9g556dtYa+jL2MPA1adnSlB4PycKfLrzMqKL+0A6o+N+fWeJWnuC7RpmuiTf3OjRUTzJ/byrzPFRFcmNOPJ9m/UzbJERKWhw89VAZ6kcv4nmTh21LEHTl4OAaHhlRrLseJI0dibGDYtCbGd6kcmovRkRHl1t1+djk5eVRTkskVcsiq9uGjSg9NLWJDcXNmJl569YIWuz1xcPdO5WdtCLSq37h+Mx599HOxsLZixyM5M8z66o7nD1y5ypDRG8q7a0opaE1goSsHgYa+3BFgrlV1rnJm7jkxJFPZ1N3gkntWCDBOI296SmzlF8TCO8CkeTEkV3wCyHhZvExj0+IJX3Erp7GI0X/7jsoUncd3jEVnrcunEDEog16Q8Zjuw/3aSiqvHlWhf1UFeI+Y8WjvxRdelKFHY6h3UA5ajnGVTqsqzK9NXVVVoG2qdmNrWt0/829+LVa0MYCX7YZ+ajyj9SeV3FdGYgQ92O38xQfh6C/5dcOZx4j5EIg9u6Y5CjHobVRFhuZkKwPAJAUQgqYuLSGyuURSBwsVOZbazLlUY3zjDFinEo27QMYZitT8aCBTCzkWDy9pp7KgY2x4RN5vxo1b05rWoyrW2zEzOxMHtLpfvzmjaS1cKTChrSNPvV5Syti5Y8Qr96Iifo/ybFc5+dWLF7Vir8ZvfP4LcVtpBJmyyWi6QSckTeezFvCV79Qdm6A/xiwm9rqBwLpnvNiLeFXR3nZplFOScxpQb95GQcSbfL384EPGggQWYIrxBAVyNhDMubYhM9dsbECPA8FzWtqwlVDIkxELLKN5z8OIPlXSA4q4TmcjLt2Y9pduF1VSXZmejoYWtla712XLDu2gcMC5l8/7syC+GNGrvLZz1864dvlSfPbRX4/ZuYUt+kQSBkMeIgujsOjp0i1NhGIYUuPCwwIESzFk6gQU9kiMeqMqjSCWPzLKCOPe0ahXRmd6DgIom2TSSHjOX0GhRx2OYGCqAzopqHC5EIwFsGAYj29/lC/tq5zqdGKgtx0N1XKgEc1DAwMa1zZKDr330JH4L4/9ThzeMx613n5XxTt27NBQM545+1wcGB+PrnRgj/mLv/o575DgVb5klbLLkMhWBUfZgDhwdMEMdBpzoKWufi4huuicVJIeUQmEdK6ddrSIMETUq6YLYYCEEe8OZw7g6SPzEZE07nFCejqhgK6GRUsXCKoXwjkXiad/7SZKRAmRwNMcImFxeckrPSUIBO0UrdCkojktJo+881R88Rtf9dayT5UAKWR0uD9eOnchLk5djtH+wfi3//7RuE1utTxWyfzTfNu1IjISADTyeElR/gRBDXjuwffhTnRJ2KSOA7QDks0dSRgAC5dQzrCGoKY7eVBc7SUTymmtyPaXtRyReBni6t/kKy4yBGLVlAv4witYRIBOLva9e8L7gncu0gD3fc2myy0iFBiehzbF+z0PvF116RVXEYva3bzv4bfHf/vmf4+TqklDOCh34tixeP75c/ElRe6ydk3IlFphBZQnGlPetmciMjPd8xlrgc2pDQq654wSaG48ZOScrRkyxhCMdGtoAcpcZmiAWMFhyi392Ec3GWVEbE55jMUUtKBqRGmC5DmNDh5TSALIOfS1NH0xElbNKMjUgFDwgB6lGZGxpm1gR1tSptclFeXveuvb4oLyoLwRi0sr8Z5T71TZsx43ZlWYK0Ln5mbjf/zhHykatdBJ/hIY5sUMsLm41bv+0BHeQHCPUZDDqc5dBIZHDWeipmBgw2ezMWv+EgIWt7LyiA2qaxo5RBMBPMgmQZqJJBPY0xAA4oaRsHjTolXCgO8VXLUbD2ade3WkyZNKb7PlBQIlswTJH3vOLq9Fu1mPS9q7/5W3PRRTly86Ly7LoCf374kvfPnLsUvR+dvf/F1XFOCnnlWu51AHnODFk7AUCzmJWHRFh/xaJfKBJAmjZZlS3opoOkZ68vQrKQq3ociEiUNXFK14OauBiwipGBKmwdTlyEwoNQTVONtFn2EgWPAyNyFwUQBw2BfsNCSw+eMq+JikFsWmFwF/K07TvqfRiktXL8eptz2svDqvY8VFeV26f+f7z7BUW0kvdPhUb3aqiGWUQrORxmIUvZFLdz4je6WrZcb5LHy6zuIcCjKfyJO//c+jLL2gM84gVj4GFWhiqGEQACWXASul9aIxZZHCAjv8daXpy49bEZUpAc389pgEqJSBWyWT76AmH4gHJUvmKAF7GLZsBzHEqlflrhaVhfiDJ74Tx7SXf/XlV+P8ubNx5sUXNIb8wiWCkBKiUGeWuA+6FNlWRm3b4eiQPbqCjjVFJpwjKrol4KxzJZ+dIx3dpyZHt/h5KJcm5+jxHAG+AlKfN/0yVPEexoemLswcg4FGriUSoUO//VvhlAcpGTniqj6mFbUiZQsCQ5IVnM+O8Lw5aXHwRyOKEPhPHj8Wl2cX4+jOgZi6ei3mlQLq4k1zrWwqaRhHmGRCfvrZx3tzooPozIUXWHJp9XM+4bhMEwzTWMFuXZHGs8z9PAGzFfSq8Pv6BjZ5KABTLwY+UimI0mfD+B4sohAvw0DE1YlBwM9pxAEBnWWgVCbZETHFwygGXZgRkdkqOB8MMd3SoYhN2cIzTKKXJ3/r2hDA01iw8znh+VcUriDuIm1Zys1faABt9yEWAUXKQj/GPLnUMmpp6qBP4yU91sr/xZCcOpMbdRYCXuUBKdOUh8H41UT1gnzuivIa5lZKF7zsAMMnIwTwmGBc+DJm+BSWsVw9U/P80WlGOZ9Hw4ceIhiHEBFrClRmK47IhSxl0J9bx4scMy3HoI4cOL40HjESpdAGjf+7QTMN6NmQ3OdTL/DTecQoAwLiTzd2lLZknM2MX1NYYHU4GnVuaYVc6/D0CENnuUJj2mQ+SWPkTgHFYYZzqnrOeKIuHrkQAZ8Rmqt2blP5+cvK2qr5IpCfyggHWjTgU5HCwWLaUPAnIh3pHsuZ5ByqVp7qgG/6UGEMeo6qggcfprhoOapoyQ2ZoSGWuk9zwtcQ6qS/+vF+SkUO8YCIW0Ch5LPKREQhYoQRUoO/rMCdzjjCcGLIuH+qzLXwePHHPbBEKAYjz1pRwfIrYPAq0cWrcobw+T0jDVk9R6yYIHEYZ8urae2nUeRsHCVdRIcXD0Lo4x4a9KUTG4kLR8KLWli0XeIJOp/vZlrbghd9U7KDMhiEpB7ZJp/aoKQ8J+H5sRF+JdLIUcDCHiEyJYi5FgQbGzxeOmcUcMc7RmeKCl+S5oOUNJBOsaE36PkbHsLjH1H5t+iogIDCdzoQ/1pNe/ZO/mQaXBSHn1NACqf+IgNnzSZFucfV4JsOzYahPN3Vl6kKMdNx8CMqzV8HX+Epv0SBBosSBuaaAOCcEYzkgmlqNUdEI1Qs8zoF4YLcUYznUQRVP0l6W0ymEPkIbOEAi/F0Xaa0oXWdC1Y6L6uA7X0yLX+2VxyV9KCBA/JLYmkEdm4u59QYA5/al/FsWTMSGB4Xc+/2oAk/dNriSjqQUXVm4wJ96tPU3eCM6CAokBlIBgBkSPr7l1y62yoRBFS+rgwkxHgBTMLOFTa/5XC38WGWe1YY5RQjWsmx5ccGRBDRnl+nSWOV70Yy9YkCGh+g0bKu04VoygxOJchj42uMz2qQheexNOdZlNc1UYeyxlejUC8fitlBwHpccIZlsWW3xe9BJZuOsgDBPYPJaDlmOsKTwY0OTF9v7ybKAggR6iyixKaqoqYQISrIlWlC+mCTwsG21KJM5/JxBUy8G1HLlVsXhSDniho04EdfOoyVlzxeYCWLXkSWjVHhwROH+L9yCTZ3LGmQDJnUy7PMjWgVDNGqO+iRLm2PiiYNw/sLZ9zwZp4ZUPwwy3pLTvqsvN56Wq1e9aXV3aUL8gmresklGFEXoHsaQR2BkwrSVKEvGBTAAbnrEYT7cUCu4I4qHV7RhV9W2lxBcXQ6ELp+CYmXczh75A5fKEiDIGsaAWjRFFpOUKvmJ01rAqgksWltWHha1gwC9KXPmxLgJAgiMJYyoyI2SqcwBp3sSxrwyBWBDh/kMIyRSJiNe9eHFYp/eF9FH+LBeHsxQBSETA2g4wgTrWJIGrsHT3cBGVrdmcg5MJJOXpA0JgAMSeMXFCl60kIZMJwyLGPy5Y2oNozgKR/zl2jVsK5R2wcUxYvZidMwajGQAEURDN4tlBDQGxzGhYGddFgWcg9KFwRYFlIWVZeJnIr3KTpspIqNx3WPQZhqYJGfvJpDUf1EoiU3Bwmj68xH7N0V4cL3h3Z2JPnW2ps+TkDQlA8jpmFRGCOX6EjeDKQ8PuvWOBhKcFxjjEpyy4ZefF07+SRtsKDJ7AHIjhKcKYgW8qEjHJJSvtcoI+gq02/r6bIYcZ8KInRG6bKiI+uwJIHACEgqYMcBLZT04mE6aWj6uCdK4JHfxiUWMRw4+UEWn5uXR3c0R4logOuUo1IJzhkRrNR8rEaZxSJTxrIGdAAI19Na9zaOKJX86ZOVwFi52HGm8X0AngcQQlmlFPmL07lLuzEj4NHT6u13zJmQPQipFIJ8xqqI0CalPzwIHAQhZ2WNYalSOCnNw4rMt0rkzkUMIIho27v0mMLd2MZHFnr42eEq/95bHciFAfPTT11XDoWHo043pKBiMMagxzNQtpY4tDQkxwHInumKtUCOYWGpHIScrgxEyAsWQlkwGbZaXKFScjx0aljfq6yIU7qwcCAODcK5QIidhEY8Vk9Zv5q65KPc36boeFhw9MFMXR0JyDfbBFxNbwRwZrSgVkgMoQEtkDyuy7Xq/6Sn6ml63lGAxQZzgu+cijgopDErBi21ZW3ibRz6q750HQdLBmeVYXxDw4GTxjYzv6VO5FwMTFhliqKlIU2Lv/z/mbqXhdrah/PNMYzrbw+rG2ArSROejYVgGiVqHQmCyZIhw11QNiSKUhvyqWJGN0pDL6MWp6TQKE+UFSHLmQaQjCv6nrbKsRjL09fnIn5xFEbjGho4SjCFLkIJuEQT8mHMvDeAhnGXbrgvY8nB+Lo1HpAEBGPYx0EBkIkKnBoSY/Ty4ZT62M8yjpC5gyHKtvfG/vKCQgQwP/8zrHKY4C0s2FVUoDxKlcIcGo4MRDBe0s/o2HYkzbskVxFyCoLrZaXFG140F/3q72vl7gmHup8DA+hFqkIvnXRmhEhOXRwkaslRMmkYySyDeGT5xExgiOeZBBO0c5YwU/1wOL2BgjCpmBspIwtF4E2fuUgsDMRtmSZWCsJgCbArvzVrKTywTDUbQcIjJFMzcxG+hYaJWwaELD+fSX7J02UJxsagNj7wGIMpijyib9/wAIUdVGImZVq5Kr04NhecVLjSyfeiTU2t/uJUmrkIwHwlA07Yjky98QUlbvBt/hHeig4UkiHxKAzwjJXyuxjACIIyTOajFAbj1VRmZLEO3cRxbrW0gtW1ULnR4U5ubADydNlzV9ZJ+jY8jjOiGv30QA+SevMQeZQTxk38Enmcsw/JpIVguAYXsg4HrnXG4Z5hwEBbGEme6+SFnUxCTXoLSc7Jf+ThLh2EcO5TMVuayOi6qu5EkChLUyE8pcXWqKcdGBlFuhLs1m8NLVia2bZQI+KQxZFJXtSF6blUEa1kuoVj04gm6YVyJcfs4oqWIgcYdZinWgaF9JPVgMO5OA4gqgRKP5qfMRgb3YWvfr5xR0unCN8zMXkB11b9nf9aXJSZKn4io0EmIvFojmoOaV8JVH3eXYhYCpRg3iMrrCCGd/2xATBmhmGgQ4SkLfOenAVv8jN4peVVoZ8RU8ThXXeC97i3t4LZSgmpPM5Fji14a4ApNcZzS9KQFjVHqkb81XJfIRdRmtPXzwbu6kvtsrHoss7glLul///t/7lF/B+x2NXW2exEwgAAAABJRU5ErkJggg==;" vertex="1" parent="1">
          <mxGeometry x="9" y="370" width="88.4" height="88.4" as="geometry" />
        </mxCell>
        <mxCell id="juJ2ZIPSlug3HuvlYxke-4" value="" style="group;strokeWidth=2;" vertex="1" connectable="0" parent="1">
          <mxGeometry x="128" y="361.47999999999996" width="48.953210010881406" height="105.44935805991446" as="geometry" />
        </mxCell>
        <mxCell id="juJ2ZIPSlug3HuvlYxke-5" value="" style="shape=trapezoid;perimeter=trapezoidPerimeter;whiteSpace=wrap;html=1;fixedSize=1;direction=south;fillColor=#dae8fc;strokeColor=#7EA6E0;strokeWidth=2;" vertex="1" parent="juJ2ZIPSlug3HuvlYxke-4">
          <mxGeometry width="48.9532100108814" height="100.42796005706134" as="geometry" />
        </mxCell>
        <mxCell id="juJ2ZIPSlug3HuvlYxke-6" value="$$\varepsilon_{2D}$$" style="text;whiteSpace=wrap;strokeWidth=5;fontFamily=Times New Roman;fontSize=24;align=center;fontStyle=3;strokeColor=none;" vertex="1" parent="juJ2ZIPSlug3HuvlYxke-4">
          <mxGeometry y="5.684341886080802e-14" width="48.9532100108814" height="105.4493580599144" as="geometry" />
        </mxCell>
        <mxCell id="juJ2ZIPSlug3HuvlYxke-7" style="rounded=0;orthogonalLoop=1;jettySize=auto;html=1;entryX=0;entryY=0.5;entryDx=0;entryDy=0;endArrow=none;endFill=0;strokeWidth=2;strokeColor=#D79B00;" edge="1" parent="1" source="juJ2ZIPSlug3HuvlYxke-8" target="juJ2ZIPSlug3HuvlYxke-138">
          <mxGeometry relative="1" as="geometry" />
        </mxCell>
        <mxCell id="juJ2ZIPSlug3HuvlYxke-8" value="" style="html=1;whiteSpace=wrap;shape=isoCube2;backgroundOutline=1;isoAngle=15;direction=east;fillColor=#cce5ff;strokeColor=#36393d;strokeWidth=2;" vertex="1" parent="1">
          <mxGeometry x="215" y="374" width="30" height="80" as="geometry" />
        </mxCell>
        <mxCell id="juJ2ZIPSlug3HuvlYxke-9" style="rounded=0;orthogonalLoop=1;jettySize=auto;html=1;entryX=0;entryY=0.5;entryDx=0;entryDy=0;entryPerimeter=0;strokeWidth=2;strokeColor=#D79B00;" edge="1" parent="1" source="juJ2ZIPSlug3HuvlYxke-6" target="juJ2ZIPSlug3HuvlYxke-8">
          <mxGeometry relative="1" as="geometry" />
        </mxCell>
        <mxCell id="juJ2ZIPSlug3HuvlYxke-10" value="&lt;span style=&quot;font-family: &amp;quot;Times New Roman&amp;quot;;&quot;&gt;&lt;b&gt;&lt;font style=&quot;font-size: 16px;&quot;&gt;Forward Diffusion&lt;/font&gt;&lt;/b&gt;&lt;/span&gt;" style="rounded=1;whiteSpace=wrap;html=1;fillColor=#E6E6E6;strokeWidth=2;" vertex="1" parent="1">
          <mxGeometry x="433" y="374" width="80" height="80" as="geometry" />
        </mxCell>
        <mxCell id="juJ2ZIPSlug3HuvlYxke-11" value="" style="html=1;whiteSpace=wrap;shape=isoCube2;backgroundOutline=1;isoAngle=15;direction=east;gradientColor=default;strokeWidth=2;" vertex="1" parent="1">
          <mxGeometry x="545" y="374.2" width="30" height="80" as="geometry" />
        </mxCell>
        <mxCell id="juJ2ZIPSlug3HuvlYxke-12" style="rounded=0;orthogonalLoop=1;jettySize=auto;html=1;entryX=0;entryY=0.5;entryDx=0;entryDy=0;entryPerimeter=0;strokeWidth=2;fillColor=#dae8fc;strokeColor=#6c8ebf;" edge="1" parent="1" source="juJ2ZIPSlug3HuvlYxke-10" target="juJ2ZIPSlug3HuvlYxke-11">
          <mxGeometry relative="1" as="geometry" />
        </mxCell>
        <mxCell id="juJ2ZIPSlug3HuvlYxke-13" value="" style="shape=trapezoid;perimeter=trapezoidPerimeter;whiteSpace=wrap;html=1;fixedSize=1;direction=south;fillColor=#fff2cc;strokeColor=#d6b656;" vertex="1" parent="1">
          <mxGeometry x="837.47" y="374" width="44" height="80" as="geometry" />
        </mxCell>
        <mxCell id="juJ2ZIPSlug3HuvlYxke-14" value="" style="shape=trapezoid;perimeter=trapezoidPerimeter;whiteSpace=wrap;html=1;fixedSize=1;direction=north;fillColor=#fff2cc;strokeColor=#d6b656;" vertex="1" parent="1">
          <mxGeometry x="894.22" y="374" width="44" height="80" as="geometry" />
        </mxCell>
        <mxCell id="juJ2ZIPSlug3HuvlYxke-15" style="edgeStyle=orthogonalEdgeStyle;rounded=0;orthogonalLoop=1;jettySize=auto;html=1;entryX=0.5;entryY=0;entryDx=0;entryDy=0;strokeWidth=2;fillColor=#dae8fc;strokeColor=#6c8ebf;dashed=1;" edge="1" parent="1" source="juJ2ZIPSlug3HuvlYxke-17" target="juJ2ZIPSlug3HuvlYxke-22">
          <mxGeometry relative="1" as="geometry" />
        </mxCell>
        <mxCell id="juJ2ZIPSlug3HuvlYxke-16" style="edgeStyle=orthogonalEdgeStyle;rounded=0;orthogonalLoop=1;jettySize=auto;html=1;entryX=0.5;entryY=1;entryDx=0;entryDy=0;strokeWidth=2;fillColor=#dae8fc;strokeColor=#6c8ebf;" edge="1" parent="1" source="juJ2ZIPSlug3HuvlYxke-17" target="juJ2ZIPSlug3HuvlYxke-13">
          <mxGeometry relative="1" as="geometry" />
        </mxCell>
        <mxCell id="juJ2ZIPSlug3HuvlYxke-17" value="" style="html=1;whiteSpace=wrap;shape=isoCube2;backgroundOutline=1;isoAngle=15;direction=east;gradientColor=default;strokeWidth=2;" vertex="1" parent="1">
          <mxGeometry x="724.41" y="374" width="30" height="80" as="geometry" />
        </mxCell>
        <mxCell id="juJ2ZIPSlug3HuvlYxke-18" style="edgeStyle=orthogonalEdgeStyle;rounded=0;orthogonalLoop=1;jettySize=auto;html=1;entryX=0;entryY=0.5;entryDx=0;entryDy=0;entryPerimeter=0;strokeWidth=2;fillColor=#dae8fc;strokeColor=#6c8ebf;" edge="1" parent="1" source="juJ2ZIPSlug3HuvlYxke-11" target="juJ2ZIPSlug3HuvlYxke-17">
          <mxGeometry relative="1" as="geometry" />
        </mxCell>
        <mxCell id="juJ2ZIPSlug3HuvlYxke-19" style="rounded=0;orthogonalLoop=1;jettySize=auto;html=1;entryX=0;entryY=0.5;entryDx=0;entryDy=0;strokeWidth=2;fillColor=#dae8fc;strokeColor=#6c8ebf;dashed=1;" edge="1" parent="1" source="juJ2ZIPSlug3HuvlYxke-20" target="juJ2ZIPSlug3HuvlYxke-22">
          <mxGeometry relative="1" as="geometry" />
        </mxCell>
        <mxCell id="juJ2ZIPSlug3HuvlYxke-20" value="" style="html=1;whiteSpace=wrap;shape=isoCube2;backgroundOutline=1;isoAngle=15;direction=east;gradientColor=default;strokeWidth=2;" vertex="1" parent="1">
          <mxGeometry x="724.41" y="487" width="30" height="80" as="geometry" />
        </mxCell>
        <mxCell id="juJ2ZIPSlug3HuvlYxke-21" style="rounded=0;orthogonalLoop=1;jettySize=auto;html=1;entryX=0;entryY=0.5;entryDx=0;entryDy=0;strokeWidth=2;fillColor=#dae8fc;strokeColor=#6c8ebf;dashed=1;" edge="1" parent="1" source="juJ2ZIPSlug3HuvlYxke-22" target="juJ2ZIPSlug3HuvlYxke-24">
          <mxGeometry relative="1" as="geometry" />
        </mxCell>
        <mxCell id="juJ2ZIPSlug3HuvlYxke-22" value="&lt;font style=&quot;font-size: 14px;&quot;&gt;&lt;b&gt;D&lt;/b&gt;&lt;/font&gt;" style="ellipse;whiteSpace=wrap;html=1;aspect=fixed;strokeWidth=2;" vertex="1" parent="1">
          <mxGeometry x="787.54" y="511" width="32" height="32" as="geometry" />
        </mxCell>
        <mxCell id="juJ2ZIPSlug3HuvlYxke-23" style="rounded=0;orthogonalLoop=1;jettySize=auto;html=1;strokeWidth=2;fillColor=#dae8fc;strokeColor=#6c8ebf;dashed=1;" edge="1" parent="1" source="juJ2ZIPSlug3HuvlYxke-24">
          <mxGeometry relative="1" as="geometry">
            <mxPoint x="887.75" y="450" as="targetPoint" />
          </mxGeometry>
        </mxCell>
        <mxCell id="juJ2ZIPSlug3HuvlYxke-24" value="" style="shape=image;verticalLabelPosition=bottom;labelBackgroundColor=default;verticalAlign=top;aspect=fixed;imageAspect=0;image=data:image/png,iVBORw0KGgoAAAANSUhEUgAAAZAAAAGQCAAAAACl1GkQAAAEJ0lEQVR4nO3aUU4bURBFwQdi/0uGfJiQBAYSiUg+3apaQV+dsefDfng5lDze+wD+JEiMIDGCxAgSI0iMIDGCxAgSI0iMIDGCxAgSI0iMIDGCxAgSI0iMIDGCxAgSI0iMIDGCxAgSI0iMIDGCxAgSI0iMIDGCxAgSI0iMIDGCxAgSI0iMIDGCxAgSI0iMIDGCxAgSI0iMIDGCxAgSI0iMIDGCxAgSI0iMIDGCxAgSI0iMIDGCxAgSI0iMIDGCxAgSI0iMIDGCxAgSI0iMIDGCxAgSI0iMIDGCxAgSI0iMIDGCxAgSI0iMIDGCxAgSI0iMIDGCxAgSI0iMIDGCxAgSI0iMIDGCxAgSI0iMIDGCxOwL8jh70sPLvS/4r24xnu98xXfMfpzeW7BmwYRfNozZsOGnFVtWjLjZMWXHinPWLFkyY88QO2KWDFky42xZsmPFOWfJlBUjXm3YsmHDm1VjNlgQZMGE3zzd+4Dv2pVj/p7p938wfNDw8y/MXjT7+ksLJ802+qV+/TRN/gF3dJCdH+65q+Ze/qWxsz49fPY31tggU+/+q6HDhp79Dwa/1C8N/8KaGuTqAzI+xc3MIO8saXHOWfff3vn2vh2HEiRGkBhBYgSJESRGkBhBYgSJESRGkBhBYgSJESRGkBhBYgSJESRGkBhBYgSJESRGkBhBYgSJESRGkBhBYgSJESRGkBhBYgSJESRGkBhBYgSJESRGkBhBYgSJESRGkBhBYgSJESRGkBhBYgSJESRGkBhBYgSJESRGkBhBYgSJESRGkBhBYgSJESRGkBhBYgSJESRGkBhBYgSJESRGkBhBYgSJESRGkBhBYgSJESRGkBhBYgSJESRGkBhBYgSJESRGkBhBYgSJESRGkBhBYgSJESRGkBhBYgSJESRGkBhBYgSJESRGkBhBYgSJESRGkBhBYgSJESRGkBhBYgSJESRGkBhBYgSJESRGkBhBYgSJESRGkBhBYgSJESRGkBhBYgSJESRGkBhBYgSJESRGkBhBYgSJESRGkBhBYgSJESRGkBhBYgSJESRGkBhBYgSJESRGkBhBYgSJESRGkBhBYgSJESRGkBhBYgSJESRGkBhBYgSJESRGkBhBYgSJESRGkBhBYgSJESRGkBhBYgSJESRGkBhBYgSJESRGkBhBYgSJESRGkBhBYgSJESRGkBhBYgSJESRGkBhBYgSJESRGkBhBYgSJESRGkBhBYgSJESRGkBhBYgSJESRGkBhBYgSJESRGkBhBYgSJESRGkBhBYgSJESRGkBhBYgSJESRGkBhBYgSJESRGkBhBYgSJESRGkBhBYgSJESRGkBhBYgSJESRGkBhBYgSJESRGkBhBYgSJESRGkBhBYgSJESRGkBhBYgSJESRGkBhBYgSJESRGkBhBYgSJESRGkBhBYgSJ+QHy5AxPb0em0AAAAABJRU5ErkJggg==;imageBorder=default;" vertex="1" parent="1">
          <mxGeometry x="857.75" y="497" width="60" height="60" as="geometry" />
        </mxCell>
        <mxCell id="juJ2ZIPSlug3HuvlYxke-25" value="&lt;b&gt;&lt;font face=&quot;Times New Roman&quot; style=&quot;font-size: 14px;&quot;&gt;Backward Diffusion&lt;/font&gt;&lt;/b&gt;" style="text;html=1;align=center;verticalAlign=middle;whiteSpace=wrap;rounded=0;" vertex="1" parent="1">
          <mxGeometry x="564.75" y="380.98" width="155" height="47" as="geometry" />
        </mxCell>
        <mxCell id="juJ2ZIPSlug3HuvlYxke-26" style="rounded=0;orthogonalLoop=1;jettySize=auto;html=1;strokeWidth=2;fillColor=#dae8fc;strokeColor=#6c8ebf;" edge="1" parent="1" source="juJ2ZIPSlug3HuvlYxke-27">
          <mxGeometry relative="1" as="geometry">
            <mxPoint x="1028" y="414" as="targetPoint" />
          </mxGeometry>
        </mxCell>
        <mxCell id="juJ2ZIPSlug3HuvlYxke-27" value="" style="html=1;whiteSpace=wrap;shape=isoCube2;backgroundOutline=1;isoAngle=15;direction=east;strokeColor=#CCCCCC;gradientColor=#CCCCCC;strokeWidth=2;" vertex="1" parent="1">
          <mxGeometry x="970" y="374" width="30" height="80" as="geometry" />
        </mxCell>
        <mxCell id="juJ2ZIPSlug3HuvlYxke-28" style="edgeStyle=orthogonalEdgeStyle;rounded=0;orthogonalLoop=1;jettySize=auto;html=1;entryX=0;entryY=0.5;entryDx=0;entryDy=0;entryPerimeter=0;strokeWidth=2;fillColor=#dae8fc;strokeColor=#6c8ebf;" edge="1" parent="1" source="juJ2ZIPSlug3HuvlYxke-14" target="juJ2ZIPSlug3HuvlYxke-27">
          <mxGeometry relative="1" as="geometry" />
        </mxCell>
        <mxCell id="juJ2ZIPSlug3HuvlYxke-29" style="rounded=0;orthogonalLoop=1;jettySize=auto;html=1;entryX=0;entryY=0.5;entryDx=0;entryDy=0;entryPerimeter=0;strokeWidth=2;fillColor=#dae8fc;strokeColor=#6c8ebf;dashed=1;" edge="1" parent="1" source="juJ2ZIPSlug3HuvlYxke-30" target="juJ2ZIPSlug3HuvlYxke-32">
          <mxGeometry relative="1" as="geometry">
            <mxPoint x="1128" y="414" as="targetPoint" />
          </mxGeometry>
        </mxCell>
        <mxCell id="juJ2ZIPSlug3HuvlYxke-30" value="&lt;font face=&quot;Times New Roman&quot; style=&quot;font-size: 19px;&quot;&gt;&lt;b style=&quot;&quot;&gt;......&lt;/b&gt;&lt;/font&gt;" style="text;html=1;align=center;verticalAlign=middle;resizable=0;points=[];autosize=1;strokeColor=none;fillColor=none;" vertex="1" parent="1">
          <mxGeometry x="1034.25" y="396" width="50" height="40" as="geometry" />
        </mxCell>
        <mxCell id="juJ2ZIPSlug3HuvlYxke-31" style="rounded=0;orthogonalLoop=1;jettySize=auto;html=1;strokeWidth=2;fillColor=#dae8fc;strokeColor=#6c8ebf;dashed=1;" edge="1" parent="1" source="juJ2ZIPSlug3HuvlYxke-32" target="juJ2ZIPSlug3HuvlYxke-34">
          <mxGeometry relative="1" as="geometry" />
        </mxCell>
        <mxCell id="juJ2ZIPSlug3HuvlYxke-32" value="" style="html=1;whiteSpace=wrap;shape=isoCube2;backgroundOutline=1;isoAngle=15;direction=east;fillColor=#eeeeee;strokeColor=#36393d;strokeWidth=2;" vertex="1" parent="1">
          <mxGeometry x="1114.45" y="375.48" width="30" height="80" as="geometry" />
        </mxCell>
        <mxCell id="juJ2ZIPSlug3HuvlYxke-33" value="" style="group;strokeWidth=2;rotation=-180;" vertex="1" connectable="0" parent="1">
          <mxGeometry x="1178.52" y="359.96999999999997" width="48.953210010881406" height="105.44935805991446" as="geometry" />
        </mxCell>
        <mxCell id="juJ2ZIPSlug3HuvlYxke-34" value="" style="shape=trapezoid;perimeter=trapezoidPerimeter;whiteSpace=wrap;html=1;fixedSize=1;direction=south;fillColor=#dae8fc;strokeColor=#7EA6E0;strokeWidth=2;rotation=-180;" vertex="1" parent="juJ2ZIPSlug3HuvlYxke-33">
          <mxGeometry y="5" width="48.9532100108814" height="100.42796005706134" as="geometry" />
        </mxCell>
        <mxCell id="juJ2ZIPSlug3HuvlYxke-35" value="&lt;b&gt;&lt;font style=&quot;font-size: 26px;&quot; face=&quot;Times New Roman&quot;&gt;D&lt;/font&gt;&lt;/b&gt;" style="text;html=1;align=center;verticalAlign=middle;resizable=0;points=[];autosize=1;strokeColor=none;fillColor=none;" vertex="1" parent="juJ2ZIPSlug3HuvlYxke-33">
          <mxGeometry x="4.480000000000018" y="36.03000000000003" width="40" height="40" as="geometry" />
        </mxCell>
        <mxCell id="juJ2ZIPSlug3HuvlYxke-36" value="" style="shape=image;verticalLabelPosition=bottom;labelBackgroundColor=default;verticalAlign=top;aspect=fixed;imageAspect=0;image=data:image/png,iVBORw0KGgoAAAANSUhEUgAAAFMAAABTCAYAAADjsjsAAAAAAXNSR0IArs4c6QAAAARnQU1BAACxjwv8YQUAAAAJcEhZcwAADsMAAA7DAcdvqGQAADAySURBVHhe7ZxpkFzXdd/P9Dr7AsxgXweLREpkKEoqitCWSDEjR7KkchbJW+xIFZWdKqeSSpwPqkRGnFRUrnKSshM6JVtSUiW7KonWULYsO7FZSixSNmmJBE2CBEkQBDAABgNgMJh9enom/9//vDsD52u+5va8fu/de/Zz7rnnvu6ennZv3+bGxkZsbmxG1HqCV61WC/q43tSL+56I6G52BRdRFxzgEbop8N1uXtdrOm8KH4DEj83N6IEAVDbpM0Q06vXEy8Gtxi18gKtDW/jGFU5KyFXy5kCeLjoIrEfIwDeMBzx0wK9pXHLoyk1wmxpnhDfElqYaB194HkfuygqVCObBhQkB200YDdh8hhCxek8aAsEMqiH6uhvd6HQ7ZlqERVuY1QCS4TY592DE7pYhQVgXDGaGQRE0JEC70RCJNEmtVheduq5QAMjKEKKHwslCjtQgVC2d5LLs4tGRQ5DLsugeBwALvS1HiA40cfa6zpuSE93EOerqq/UgD3QyWHAA79BbM336kVMXJic9JVMNGuoDuqfZaoMhYFyTngIeGehDmRxH9IwAxlHGQGrFgzDa8rZgawjFvTpgmooR6XWx2lCkSzkkg14yrDCBAqcn1nGsorkoWHgB1VRkY8jESDnBwZmAWEH1c6YRrUlvmxeG6OreXbrvER9u6OtvtWKlsy6aChLJYAAA1Zi5zEg6uWZMdyah425lamYMIooznCO0iisEuAZG95DF8927o3J9XX26VGMMpsWgnIlAG0aHI7viYliNg0vENupVhEkh4LnGtJ3uumkJwyfgjWOZkSjji4aBMRA86MO5yG7+6jZdMHQNFG8rHc1GXVhVmvGzEf3A5AxCTrQxsqaGboC1L8V4vZuRsy6B5Rg1opJwTzjdigCCZX7B/41624QRH5owaEqxVr1hPI8BKzoF1/jWAKIcimBRIGKgQ1/mb9Fv1KuZ0SNempZEixuj5R1ScqJ4ZBpKeVG+YfdlGnAK0d2qHI5gJJwm091ibEZTvGwLXSO/6epIRyr1yTbIs53T1e9pjpK6J2xLvkxUBMwXvXgBJRzWakBgCAsmgQxU6Ze5DtErkyi/FFwbwcZiFKXuahpiMQTXC4voEJGlbU9tGlNNKUMylAVUQpp2I1cU62N0hlEcZ3BreXMGkI4wIIaHH7YpfQgELPpspyS/VUdq4HzqiJQAxEhHXkKwBgIKCA9wzxjEQMgcaNPKkDrLkOsoL7rwgGFZUDBekygQNI3IzpwnGhvKRTgPehqzaRnTDfjoSsrgniixFBpfrwy5blq6oM8zhmtLmq8u+nRiw/3bBtObeFKV5OwgnTk12fHiIhiCAzTSArPAhoQBh/qIYi9ygoI+jjdeS5HpqVcxwhyoxnUmfY2JMQ2CZuC7bOA1ENR4iCMcvK8+hPR0NX08m/AWyg1+eZ1GzutUgHsckSknZWERqWt1VerRi+izwcH3qC9MEl5UElbaxkpOMqMdzp0N6sBJh5GDEa+pIFhfl84VHTxKcCB75v6kZwMzrBN4tfQlqxrlgRAIfaJGBBC0CwO9EN5TBiw1q6BQrNeYuhkdGJqD8iO9aVA3LjsaA4/phKEQlWlLgyrRAxwszAZ4HTaq4SNWJQ/RhHFBgg/KFPnaWoFrkqmDQ8EBxlyh7yVPV0ATYZLJBu1RFGeZQ7zZBpQ9GgemKz3RD2PimGYj5cHp1MqpnfTKMkJolZVhSFRVxo9Wo2XWeIGDvl4JLHryMsaVcvIkuhEF4maloEkU0TIaEVSR5WhCcA/ZaJk2qms46IyQKOlShl7TRwamv3J3FVHwAYdr0hALJimElr1cwDlnCsb0NNcLWswqHJaGZJTDSDYkY3aYrqlFubA+jNqR6ihsmu1eX2JxM2BaCKMpoK1imD4TFSjIJkRcgYojCoNsGD3vq+ld3ZdpQUO9NGE2+HBsaEqT8IHkMFXh4uCcroVG4ZdQGD7tTsTZJWlcOQ4YDOdWkQA7Rcwo9WKnPAsdjM6Qi3F4C94zruKN0YnoEmS5uUBv6OkK67tkEBlySccLRBbL3tWYswyjE0JzW683HZ2SASoiCvmcbhiRBgNEw/Ol3IFW+lrjVYQ5Ylhc1C2OqZRoIJcXIPgKjoIFiijHVC70t1ZpHTn1sBPuTkOpVDXfDFKQgIRo6sY0hwC6GAd46wYPpMMyCjLk1RhlVLoNGGgJPUsjLKxBEc5uGsg0hMzopCONSqu8KS/aAXq3NDROggPWk6bqzuZB6+NpZ+0wRkYF4zgFIxKIjgbRIU91vBBxVplVyQMhlDGm3nBYpoZsWzLo8HQVD3iSDqyT+nF81tkpV1Ir72bv/rsbciB/QqScNQgBnNs7FMrS1oTUxxiNEsWJWS8WJ4hnNOAbIgwjVIxNE2HUoc6maELPHrRUKKiXDZmR5HyrlgaFfu7CZKqoax+/SsrRa52pKBq8WHWJHPjVJRO6sFggE5iws5EEj7sJFagz60gB4GPgQo+IA6JM7xI44HKflQlO5B79tejKwfACtqdBaWSMomhpEJSgVR8KU+Nl1NCTBD21q5wBDv1IhYkNqxeCwqylqYEz7VHwgC1Nl2lINQmMoJ6mkgG6SYnG4iPjrme5BGLyEQ8iVnLa5SgpgxU8+LtOJmrNRiN2AukKelWkWhGil8vEtSGFS/Bwj+MzjTFjk45nWUOCIBBDG4SfrovoHqrOFPQ2rEBK1PG0BTi8sy2cBMK4YOqttim/CQ9BeVqDUlkOgSPQZJJnHfZw9viauxKt9Ektn3MmEN3AZXQ2FcFlpm3zBI9pCBb9utZVXytzdUdGyFTFuN4d2Wl8ejAi5R+6eddkrNSXawycM1n8CBIGnGQFI3SDpleo5xqOBDf3EXEm412G1ZNxpJKiQh7TPa2HKSpATx26ENKGZSXEqOnhBMcwBVAKKp9tNRyA11UDM0pJ5JwoeKZrTr/cgfg5gmCKg6Dn3OrLNBK7NVbi5bVMa45knf1SvyNNcEBDh8W061ILbI0QLLIRMBlSaXhY9tSbrU3nDB0IBpIjrwgkFGSvaz7Qg9EtOIxNOHG2z7T09N0jvGFY6DrQGFGfnalIRmmMhjPglNO7GI8Fh4VlmyLvzAxyaMqLo7iGSUVDgqfz02lpMmrnplOWZ5IqEq/o6qehm+UTYLEJwcKit6Ut42rEI3jgMOIZ5Cmje09RU0mCICFUo44QOe1I+EylUn6AgzOABJdxrpsSGEGkir0LsZoUtcM4yzCeOqZcngswXclPjHe1pevE2vqqebGwQBdZmc4uqdwHaaQUD5Fm94YRyYW58IDDXj+DANres+sasbOCSVnySZNkQkaNOWWILuOZvnLHZqcbJgMDHJyttCKjSChMwPTB+Rl9CJZIrPCiZzhomAhaqJMpk8mYA+OKuv7WJDCgLTEnVdCyGMcpCJgkgae+ZNeSU6oba2urHhsZbsfEjh05s/zUKWLn2HDc88bj0WrnbgRlMFnSQ9ZML8ivobx2hGb0w5+RDIaihXZ1TaUzy5pGA4YHwj3YxzDYInWFp2eSEDkwNLNGutROQwxkCMHK97rISI2YGBuLucVFEe6JtohDECPzwtMk4BSAKK8e7YsAL7zsiKPLvWClSnDi4xD3pRDuB7bR34of+cAHY9fYeNy6Padp2YmJPbtiYt/eeMPkiTh+YF9cuHrd0QsORmQd9CzTPa4l+gfb7VjtrImD9Klkh76jz3yJ0FxCcGbqJAMKpjiqI2IN7Vby2YXoyKue4o5q6GJ40cmnRhpSR5YNREoJbcQyS6GmGWy0SvMiiBug2e3miBY+XXh8k+hDCd0zBeFBYi9oxbw2Rl89fu6nPxFPPPV0HD5wPJ55+sn44A+9P0LROLFjd1y7OhU378zH+upqfPeJ78WNuXnJkhFDpHiFl6JJUm+WS2dymc4pN2fKL2Zd5kwM1Gy2lAbWBMYUzqjOJlwiVfpSsQL9fzdCyhflU0KmNl2OLggS9gJjm9VQsrZHsQq9GBI4M9Khc6n9fNIZoT3GfXWdhhQ/0OiuBMOQbU23T3/q52Nudi5OHDoS169cjBNvOBn9I4OCUK3aasb+gwdjoK8V7d5WvP2hBx0IyGtelkdN51wguebIgIA/D2mgRaQRw6SxsmmwIWmCc3C5mYBpsshxzcYFGs6d1kL0NGEd3jDGM/kEKHfAPTKajauGUXNqZ4TC3GWHIqI8OadxDUrCqa8yngVQP1A81rOw7t2mV++vxz/7h/8kNjSvWHH7+wbiwftOxkc/9EhsqEhfWFiEg+U7MTkZ7f7BePncea/2KOmpJog85/awzB6nMBubSiR14t06SYftKY5RU/akpubUYMpbtXLXT50xKqEmWBETajJJAD7zYaWTcBrB0LCALatsBi3C5S6Gh7TgFYI4xI/XJE9LecX81YetgaMOhD4yQjUFJOcIob8W/+rT/zxWRPfSnRvRNzAam51u3JpfjakrU7F/z87Yv3sPqFauI3/cnL4RFy9fig+9731x74mTokNxDWXoY4CMNq7pzoVyO4I5ZURn6kEO9HJeFRb3ZUFLurqXMp61nurorrSosx3RrLdOM0bW8N5cXm+ZaN5Dg22gldc7kVT5QkZKRi2VKq4ETBIYwUsoYAB3mSIHZdlhQlYAWjxIbg7W41c/80tx4eKMFpvp6FnviekbU9Fo1WKluxJTMtrkoUnPEhYHhP/N//rlePaZH8QPP/KBWFlfiZHRYZfSt+bumA9Pd4ginJkyI4P0Uz93uZdH2tJkeAnFfa7YiubqGnxg03hpCw7SEjMx6YpPfm7OEO/JlkPDQkylec6Hd9nDgli876ZxvFOYkSZ45O9cqz6MzYrNAgRsUYwr7WWjOVCPXzn92bh6aTpuzt6KhZXlWFmZj/vJk4OjzCxFsxQSOZdqMuU3Hnsszrx0Nh5553t5FuadmEd0fv211+L8xUsypFhgTLV8ICIXYFvLmv2WQXJ6sbJcaTjswD2zLKOTByx3b1KqxmVRR61GHZi2UY2lqHTupDRAPEeTLuVFThiXfrO1x7hl+iKoBBQQDxgYYBUkUteU0HNlxYMg6FKEBgfa0dm3Gf/5N34zbl6bjaXF+XjptYtx/vKFeOtbHoz20A7z64hPrckMkFN1/NbXH4s/lyH/+l9+j6yEw9TfxCjIrwW/t88G0yWMMpIlC7y9UAmlPKJzxKmiwEmGVwB5glvOsjGRHtKPcQzPzCWYKI4SiRqzWnN4RtgDAP1qFNZr1YIBYGHCOEJZTMEgPFCs8G0dWTIwpDHBsPrzFRhJWtFQ4wJFpRTi/c/Pfzf+1t/4ybg8fVFljnY7ndvKf39VBXQzmj3Ki1ICddakLIvM6y+/quNc/NSP/micPHpC/DOdNJQ/4c+nni+++rJlsJWJQFuR2YQoOJ4HLdpCin+bXUAKrZOoYWz1gw698pTetNEXJ4gW9wQKtgCPLS9R3FNvtODqcMaT5BvKG8iKt4HxRIpXmUUES3lEM9lK/vI4DjobrNoeoCVzcmRjsBG//Au/GANDQ/H0mafj1z/3xXjvu0/Fux8+FRMT43KEIkqzwgW9ZBKRuPDy+fjS174cf/PDPxKTk8ejqxWIVf8HZ581X9rj3/uz6CwvbfO1IXOMC6covXIBkXGlg5+9GggibFyI1pyJjnDhkKNLagOXg1s/nwXbcI5cLQCKIPKKIWRER6boO7eoC8PyDktWeXNSM7TlkjN0zoQMGfIXCnFdXCBBVeC1h1rxy//0MzHUbsX//t4fx+rcarzzXaeiZ3A49uzZLU4kflZr8lXL02fu+oym91fj7/3dvyNjfjCaqjVbvaoN27W47433+OHx5StXgg9RZAqxIt/JCOJNMCETBiLquEY9+rnhCZbuuNFfpoNibM8wRtSJnvmRNjk3McDhiZrp6qi3mq3TyQD7Y7RNF85Zi3Hc1WACYb0YMWlHDlM5Synaxgbf0UnwIhhPeFrDrfj0P/iFmLs9H8+++Odx49admJq5ou3qUPy7X/oXceT40Th/XnXj2npsanFC9j958qn48jcfi0/+zI/Fex56p1bMRowMDsadhXnT3RD7dnvACo72D8XV69NpOPFtMNMsG8oKgPBRyyfm2ecZ6aaz+BEsGZe8ZyDkI8acqbRcXOU40+G+oqV2mpWYIz8+7dpzDJu6DhByBcwYTWb05ZnoKat519/dSSNSNoCLIftH+uIffeLn4saN2zF7Yzqeevk1rS7L0RgdjZ/98Y+b4qAi7t573xTnXj0vUhvx0pmz8fhTT8ZP/8TfjgcffHssaWov3FmInTtHo0+7n8XF5VhTrq2x0iKYDL1jeDCuTl9DKpkRo5K60iysB9y3FE25CFXGQFadM9eiBWfKK6oA3VH+VC/skLqpnzOw1TjLt+pMMTQd3tJgPktCrJ6JV2EsuAQxsMugzCUcCccUr4bNtNlqRP+Okfjkx34qZrVFpPx56rkzsWOgFUcOHIxHTr07NuT5uYWlWJcjO1pE3nHfm+Jbv/N4nL96IX7+k5+KN97zBhlxyfz6lE9mZ+dV1PdpweqqxtxQTXo9xsbGYuralRjfuUuRveZt4eqaDC0Z0CHzWsqWhsyoJNqQvrxTweBIVwGVwTAV+qEWOCzEOIU+B5cG6ppJMmb9tJUWMsbC8kQZU4z79GoVhaYpdGFn+aRL92FIyihC391mzT76HhmCenDmxs1YWbgdf/bC89qtTMbJ48dlkOG4JQNPDA8LOhP9QK0dT/zR4/H73//j+Mcf+7gcMeEpzZTtb9djWkY9sn8izpy/GMqa8eqF1+PkocPx+tWp2DG+U1Ha0XlcKzx1MU5aFFW9JGhX0xw9/S0OCZpPxVAg+21ibm22VCT34EQijlDqEFyqjIPAzFlNJzYzIEaksAUiWeisa6YKdw2VT6x03snwEjycWb0hksY0TTUxUufErvE4cfR49ChSZhQ9f/j0c/HwW94Se/ft17Ysn3YrW8dzr7wSy6ur0V1ZicuvXojT/+FzcfLIsVhQ9M1oWq+sLEar3YyVtW5M7t0Rl69dV2QPx53ZhTi4f6+iteat5o6hEW8Edo6NxObIiKZOQwsVZVBKxedRRCWLBvqhR4k76tnUh+XEZpDudy1I6mem+qMSvdAXvTEqzcZttVqQMIFkSasMCSW1jNQ0MttOrsxAGJQ6aywYYuIGA7127ZmIk5MnYnl5OXo1PV95/fX40F/7QPS0iYj8aiGrI/t7P5TVsXJ7Ib7x+78XH/3IR+J973qYOaWCvRlLSgG1em+Mj/bH7O1ZwfbGWZVKQ4N9MaYq4PrMtejtH4wfvPBcHNq9Xzl5Robs0WJ2QWPX48VXzssoGUHIzTOCStCMVDuVlqYtSxYaEhQsaAZGXxmVwGOcp/+2A3bSqd5stE4TcTwAhQSeYbWDMXtbLM6jekg5JkWYArYkYPjkDmfbGX197RgaGNI++Xa0VOK8eOlyfPzDH44NKegvjgIoz0CTiMfTF7QgffuJ78Tf/5mfiFPveMhROCZjzcnArXordo4PxtrckrzfG5cvX4ue/t7Yr8i/cu1yHN97OJ56/vl44+TRmJu7pdW95adODW01683eGBsalFFnxLL6ggIGcNsOGJvP+hIo1Zj7Mn759nLqTHBBIucvYxgUKvV6s32aTwOTQPIhdzDsEkJnwrt8HOoHvWKKh1y06mBhwKCMg99VvlpZXfbXsOe0Yv/khz+iUie3ZpRg0HAxLHQi9LtPPhHPnjsbv0J5dPhYLGmFxiHLq2sWZmhkIG4qVw709sfMzevCb8Ub9hxUenghjhw6EWfOvRiHDuyJ3kbbAgwPDcfFaZVcO8Zj6vrVGBvdYX435dwSBORLdjhZ9sCG/jRkFuPYgCNtAJ53OhW+PwuyUbdhXRrBiDvsDJCfuGAcWz+jtUwRf1pYMUtPcpUPBZw3TDYFamrv/OMf/ahqQUWjaPtPB7CUJ10tFr/1u9+O27evxxc++y+jb3gkukoZw319cWt+Pga1z+5TBN6eX4iJwZE4M38jBuv9cWBib1yZej2Os/BcuRi9I4NxcHR3LM7fjJHRiXjuJS1ycsprly/F4QP7YqDNfn0jZm7NxaochI6pX0abXzp7TbC+qYXfGZfBMskRAPlhnetynVNb7KdZ0KBod0dGXT560xiG0z1jGBIkjFk+faQl84wuE3RDGB44tOOR979feW1YKUT4Gma3QapoVDnzq994TPl2IX72E5+QIG2t7oMpg2bKgHJlTcacuTUTg/0jsbQ0H/v3nYz9I8MxNXU59hzcF/My8ppkOzK+J85PXdD4kXjmhWfi0MGDWrQ6MaA0wS7q9vxt75LeeHTSzz+JeHTxZz1qIuGIzN0d+mf0cTDY22pbb+CsOmMgMq6r7FaweVVWy8+t01BZoPPoixUa0DSWp4JHcjyjFQGozdzlVpNB2oPKVZpefPKY/t70c9IW8Cq+v/Z735JSy/Gpj/2Yau2WFpnlWJqbE+V1Tz0lvZjRNrK3PSyKG6oZFRFr89oyXot9k4OxvHAnFlZX4p4jx+NPXng2Dh86GC+88nwcVO06MjwqNZRzR3bE6spyDA8MqMhvR+9QfzygGpbat0eLG9FVVuVUTHLKwP7sK/9s5fKZOQ7gjMGdazkElPW3UwefTmImBt0nZZSqdQExeyfJmikGr7lYT8OTT3N1pFWpQDuRe44pinbtzs2AQHEKAjS1//tPX/lKrCyvxDveer+jqKfWVIR1Y13GWVhdj6GhAU3faUWTdjnKcxjk4P4D8eTTT8tJE5rq6/GhH/6wxu7Et7W/f899D8SVmaux1qO6VtH58sVzcc/hw/5Elcd2733ooVhcWnIlcOjAIf+2Z3r6ug1D2sqFRjeSnfO6ZKGudQipo+W0l6FEUe9vS6u/RC842FD9zdN+FkiIp/kMQHItZQBGzp+N6FJj3tibUMYoH+RXmBZoVEU457n5udi7a8IC+JGc3n77q1+JersRD7z5ftO/MnND28MxTzHu1zqrMavacqDZrxw4K0fVYs+eA/Hd739fNevh6G+2Yn5pQ5E8H2dvdePoRH+sdlcVuRHHVBa9cvHVODY5GTO3b+N5ydpVQX8lTt5zTywvLmg7eyseuPdeXS/G1Rs3LCdphXUhAyTXDS8uKG5d1avLNCBRqKCpNAaeMWxWbytnAsQMB47BXN/yGSLIfDUmCTHOSDKlD6I95NYqNcB+eWWV/OHrmzLM7omdUe9EfOnrX4/h0cE4euwEZaD44VUWhluxf2IciWJxeVUG3YyFxXmZoSZn7Iqnnz8TRzWNRwfaiq47cUAR/9z5s3Hq5M54TYZdV5Qf3380zp57Pg4Jbvb2HPV69PYNSJZl6d4Tt1QFvOut74gpna8rKt/2l96ivhva3s5lgNhYaZQ0pHSh36t12sMG0zURmo0x3qsxpjlTMw2UaNT4tNwyMob1sw/U8qiNBE4vC1FaOpnSWDVhQPfN6Wvx+JNPxuTRg7Fn74Foi0OPknq7xfQRsDw5rSgZGBiRQI2YXZhzrbhzaCxen7oY+/bs1VTDMfNx7OBkPPmDp+PNJ++NazNz8ZYHxlXLDscPnns23nTvPXFHEVnXrmd+ccn5eXhY9al2YEzl81r5T73jbTF15arq06vx8H0Pxv/6/tMyJJFUJM/ciIIOFNGwVrxx1uEguktff09fs85FO/kgkRyaes9VjsSKofKJM8bFU/ktNgzVJ4OUz0YwrutNXXi6i8myImZFW8Rp7csfvP++aLSpA7W2DA7IYIsq7Eeis7Jk2H07J7SX740rMnxvX6+2i0Mxr3y5b9++2OisxcLyYuwb3xvfPfNcPHT/m1SX8hGvVv3uWKxszMWB/W+K66ope1SOIU+7UfM3ORTeWnC0Gmu7Siq7Mn0zfujdp+KV1y7Ef/zK12JtSZGrF7oyO4EhNnLDQuCgby5AaFXe+1ot7d7YrKTdsI2M2czSaKtoyumJQORLA4kgxiJGuaex4q2ud5xLaUxXojfTAn0Zzfm9zlrs3r3bSZ3k3lnfjF1a6edUS7ZEDkU2FeWvK1p2jQ6rYJdRtSXcJQMvLS8oV3dcW/7p88/G0SMHo6Zw3oiOVvLD8QffeyIa/UPRWZ2P3UPtuKMSimeebUULitzQVpSPJwb7+2N5bTU2kKfdH7uiEd96/HHpiT6pE0pSY1MaYQPrLN0Zz+8W5XTGDi6fgHH8Ai3jN1v82oIbPsUr+1TuqTPZJTCcxO09nbFn7ldzSlBO+Mk6pM1cV3IzEBTmOIan+fe/+T5XCozwqGF5rRNXr16N/sGh6NfU3KeFhqjEMXv37Nequ+w6dZ8ccfaVV+INxyZjWNN/Vbz37zsUf3rmmTgxuT/GVdAjww3t0a9evxWDYwNxcO9+Rf2aYeeVk/v7+uXEpbizsBKLKt5/7fNfdDorBkIPgodPHPx7SglPzbtePZ+lGUY3aEj5tzWG1dWU9pQzbV2I5ZMfAOgjhEu0wTDrz6SMefEWRiL63CdYHELiBo4IJWVQy1H0Tikv7pnQ6q7X7ZuzcfblVxR5y47yVm+vP/Pmq4hjw0Px+vQV1amjMdo7FM+/di5OHjka62vLsSJeu8Ym4tmXXoyJvTtjQgX9imZIX2Mzdo/vVhm1FtdFe01wO0dGVQKvavY04o5mQaikqask+dePfl66yJTSNR9g556dtYa+jL2MPA1adnSlB4PycKfLrzMqKL+0A6o+N+fWeJWnuC7RpmuiTf3OjRUTzJ/byrzPFRFcmNOPJ9m/UzbJERKWhw89VAZ6kcv4nmTh21LEHTl4OAaHhlRrLseJI0dibGDYtCbGd6kcmovRkRHl1t1+djk5eVRTkskVcsiq9uGjSg9NLWJDcXNmJl569YIWuz1xcPdO5WdtCLSq37h+Mx599HOxsLZixyM5M8z66o7nD1y5ypDRG8q7a0opaE1goSsHgYa+3BFgrlV1rnJm7jkxJFPZ1N3gkntWCDBOI296SmzlF8TCO8CkeTEkV3wCyHhZvExj0+IJX3Erp7GI0X/7jsoUncd3jEVnrcunEDEog16Q8Zjuw/3aSiqvHlWhf1UFeI+Y8WjvxRdelKFHY6h3UA5ajnGVTqsqzK9NXVVVoG2qdmNrWt0/829+LVa0MYCX7YZ+ajyj9SeV3FdGYgQ92O38xQfh6C/5dcOZx4j5EIg9u6Y5CjHobVRFhuZkKwPAJAUQgqYuLSGyuURSBwsVOZbazLlUY3zjDFinEo27QMYZitT8aCBTCzkWDy9pp7KgY2x4RN5vxo1b05rWoyrW2zEzOxMHtLpfvzmjaS1cKTChrSNPvV5Syti5Y8Qr96Iifo/ybFc5+dWLF7Vir8ZvfP4LcVtpBJmyyWi6QSckTeezFvCV79Qdm6A/xiwm9rqBwLpnvNiLeFXR3nZplFOScxpQb95GQcSbfL384EPGggQWYIrxBAVyNhDMubYhM9dsbECPA8FzWtqwlVDIkxELLKN5z8OIPlXSA4q4TmcjLt2Y9pduF1VSXZmejoYWtla712XLDu2gcMC5l8/7syC+GNGrvLZz1864dvlSfPbRX4/ZuYUt+kQSBkMeIgujsOjp0i1NhGIYUuPCwwIESzFk6gQU9kiMeqMqjSCWPzLKCOPe0ahXRmd6DgIom2TSSHjOX0GhRx2OYGCqAzopqHC5EIwFsGAYj29/lC/tq5zqdGKgtx0N1XKgEc1DAwMa1zZKDr330JH4L4/9ThzeMx613n5XxTt27NBQM545+1wcGB+PrnRgj/mLv/o575DgVb5klbLLkMhWBUfZgDhwdMEMdBpzoKWufi4huuicVJIeUQmEdK6ddrSIMETUq6YLYYCEEe8OZw7g6SPzEZE07nFCejqhgK6GRUsXCKoXwjkXiad/7SZKRAmRwNMcImFxeckrPSUIBO0UrdCkojktJo+881R88Rtf9dayT5UAKWR0uD9eOnchLk5djtH+wfi3//7RuE1utTxWyfzTfNu1IjISADTyeElR/gRBDXjuwffhTnRJ2KSOA7QDks0dSRgAC5dQzrCGoKY7eVBc7SUTymmtyPaXtRyReBni6t/kKy4yBGLVlAv4witYRIBOLva9e8L7gncu0gD3fc2myy0iFBiehzbF+z0PvF116RVXEYva3bzv4bfHf/vmf4+TqklDOCh34tixeP75c/ElRe6ydk3IlFphBZQnGlPetmciMjPd8xlrgc2pDQq654wSaG48ZOScrRkyxhCMdGtoAcpcZmiAWMFhyi392Ec3GWVEbE55jMUUtKBqRGmC5DmNDh5TSALIOfS1NH0xElbNKMjUgFDwgB6lGZGxpm1gR1tSptclFeXveuvb4oLyoLwRi0sr8Z5T71TZsx43ZlWYK0Ln5mbjf/zhHykatdBJ/hIY5sUMsLm41bv+0BHeQHCPUZDDqc5dBIZHDWeipmBgw2ezMWv+EgIWt7LyiA2qaxo5RBMBPMgmQZqJJBPY0xAA4oaRsHjTolXCgO8VXLUbD2ade3WkyZNKb7PlBQIlswTJH3vOLq9Fu1mPS9q7/5W3PRRTly86Ly7LoCf374kvfPnLsUvR+dvf/F1XFOCnnlWu51AHnODFk7AUCzmJWHRFh/xaJfKBJAmjZZlS3opoOkZ68vQrKQq3ociEiUNXFK14OauBiwipGBKmwdTlyEwoNQTVONtFn2EgWPAyNyFwUQBw2BfsNCSw+eMq+JikFsWmFwF/K07TvqfRiktXL8eptz2svDqvY8VFeV26f+f7z7BUW0kvdPhUb3aqiGWUQrORxmIUvZFLdz4je6WrZcb5LHy6zuIcCjKfyJO//c+jLL2gM84gVj4GFWhiqGEQACWXASul9aIxZZHCAjv8daXpy49bEZUpAc389pgEqJSBWyWT76AmH4gHJUvmKAF7GLZsBzHEqlflrhaVhfiDJ74Tx7SXf/XlV+P8ubNx5sUXNIb8wiWCkBKiUGeWuA+6FNlWRm3b4eiQPbqCjjVFJpwjKrol4KxzJZ+dIx3dpyZHt/h5KJcm5+jxHAG+AlKfN/0yVPEexoemLswcg4FGriUSoUO//VvhlAcpGTniqj6mFbUiZQsCQ5IVnM+O8Lw5aXHwRyOKEPhPHj8Wl2cX4+jOgZi6ei3mlQLq4k1zrWwqaRhHmGRCfvrZx3tzooPozIUXWHJp9XM+4bhMEwzTWMFuXZHGs8z9PAGzFfSq8Pv6BjZ5KABTLwY+UimI0mfD+B4sohAvw0DE1YlBwM9pxAEBnWWgVCbZETHFwygGXZgRkdkqOB8MMd3SoYhN2cIzTKKXJ3/r2hDA01iw8znh+VcUriDuIm1Zys1faABt9yEWAUXKQj/GPLnUMmpp6qBP4yU91sr/xZCcOpMbdRYCXuUBKdOUh8H41UT1gnzuivIa5lZKF7zsAMMnIwTwmGBc+DJm+BSWsVw9U/P80WlGOZ9Hw4ceIhiHEBFrClRmK47IhSxl0J9bx4scMy3HoI4cOL40HjESpdAGjf+7QTMN6NmQ3OdTL/DTecQoAwLiTzd2lLZknM2MX1NYYHU4GnVuaYVc6/D0CENnuUJj2mQ+SWPkTgHFYYZzqnrOeKIuHrkQAZ8Rmqt2blP5+cvK2qr5IpCfyggHWjTgU5HCwWLaUPAnIh3pHsuZ5ByqVp7qgG/6UGEMeo6qggcfprhoOapoyQ2ZoSGWuk9zwtcQ6qS/+vF+SkUO8YCIW0Ch5LPKREQhYoQRUoO/rMCdzjjCcGLIuH+qzLXwePHHPbBEKAYjz1pRwfIrYPAq0cWrcobw+T0jDVk9R6yYIHEYZ8urae2nUeRsHCVdRIcXD0Lo4x4a9KUTG4kLR8KLWli0XeIJOp/vZlrbghd9U7KDMhiEpB7ZJp/aoKQ8J+H5sRF+JdLIUcDCHiEyJYi5FgQbGzxeOmcUcMc7RmeKCl+S5oOUNJBOsaE36PkbHsLjH1H5t+iogIDCdzoQ/1pNe/ZO/mQaXBSHn1NACqf+IgNnzSZFucfV4JsOzYahPN3Vl6kKMdNx8CMqzV8HX+Epv0SBBosSBuaaAOCcEYzkgmlqNUdEI1Qs8zoF4YLcUYznUQRVP0l6W0ymEPkIbOEAi/F0Xaa0oXWdC1Y6L6uA7X0yLX+2VxyV9KCBA/JLYmkEdm4u59QYA5/al/FsWTMSGB4Xc+/2oAk/dNriSjqQUXVm4wJ96tPU3eCM6CAokBlIBgBkSPr7l1y62yoRBFS+rgwkxHgBTMLOFTa/5XC38WGWe1YY5RQjWsmx5ccGRBDRnl+nSWOV70Yy9YkCGh+g0bKu04VoygxOJchj42uMz2qQheexNOdZlNc1UYeyxlejUC8fitlBwHpccIZlsWW3xe9BJZuOsgDBPYPJaDlmOsKTwY0OTF9v7ybKAggR6iyixKaqoqYQISrIlWlC+mCTwsG21KJM5/JxBUy8G1HLlVsXhSDniho04EdfOoyVlzxeYCWLXkSWjVHhwROH+L9yCTZ3LGmQDJnUy7PMjWgVDNGqO+iRLm2PiiYNw/sLZ9zwZp4ZUPwwy3pLTvqsvN56Wq1e9aXV3aUL8gmresklGFEXoHsaQR2BkwrSVKEvGBTAAbnrEYT7cUCu4I4qHV7RhV9W2lxBcXQ6ELp+CYmXczh75A5fKEiDIGsaAWjRFFpOUKvmJ01rAqgksWltWHha1gwC9KXPmxLgJAgiMJYyoyI2SqcwBp3sSxrwyBWBDh/kMIyRSJiNe9eHFYp/eF9FH+LBeHsxQBSETA2g4wgTrWJIGrsHT3cBGVrdmcg5MJJOXpA0JgAMSeMXFCl60kIZMJwyLGPy5Y2oNozgKR/zl2jVsK5R2wcUxYvZidMwajGQAEURDN4tlBDQGxzGhYGddFgWcg9KFwRYFlIWVZeJnIr3KTpspIqNx3WPQZhqYJGfvJpDUf1EoiU3Bwmj68xH7N0V4cL3h3Z2JPnW2ps+TkDQlA8jpmFRGCOX6EjeDKQ8PuvWOBhKcFxjjEpyy4ZefF07+SRtsKDJ7AHIjhKcKYgW8qEjHJJSvtcoI+gq02/r6bIYcZ8KInRG6bKiI+uwJIHACEgqYMcBLZT04mE6aWj6uCdK4JHfxiUWMRw4+UEWn5uXR3c0R4logOuUo1IJzhkRrNR8rEaZxSJTxrIGdAAI19Na9zaOKJX86ZOVwFi52HGm8X0AngcQQlmlFPmL07lLuzEj4NHT6u13zJmQPQipFIJ8xqqI0CalPzwIHAQhZ2WNYalSOCnNw4rMt0rkzkUMIIho27v0mMLd2MZHFnr42eEq/95bHciFAfPTT11XDoWHo043pKBiMMagxzNQtpY4tDQkxwHInumKtUCOYWGpHIScrgxEyAsWQlkwGbZaXKFScjx0aljfq6yIU7qwcCAODcK5QIidhEY8Vk9Zv5q65KPc36boeFhw9MFMXR0JyDfbBFxNbwRwZrSgVkgMoQEtkDyuy7Xq/6Sn6ml63lGAxQZzgu+cijgopDErBi21ZW3ibRz6q750HQdLBmeVYXxDw4GTxjYzv6VO5FwMTFhliqKlIU2Lv/z/mbqXhdrah/PNMYzrbw+rG2ArSROejYVgGiVqHQmCyZIhw11QNiSKUhvyqWJGN0pDL6MWp6TQKE+UFSHLmQaQjCv6nrbKsRjL09fnIn5xFEbjGho4SjCFLkIJuEQT8mHMvDeAhnGXbrgvY8nB+Lo1HpAEBGPYx0EBkIkKnBoSY/Ty4ZT62M8yjpC5gyHKtvfG/vKCQgQwP/8zrHKY4C0s2FVUoDxKlcIcGo4MRDBe0s/o2HYkzbskVxFyCoLrZaXFG140F/3q72vl7gmHup8DA+hFqkIvnXRmhEhOXRwkaslRMmkYySyDeGT5xExgiOeZBBO0c5YwU/1wOL2BgjCpmBspIwtF4E2fuUgsDMRtmSZWCsJgCbArvzVrKTywTDUbQcIjJFMzcxG+hYaJWwaELD+fSX7J02UJxsagNj7wGIMpijyib9/wAIUdVGImZVq5Kr04NhecVLjSyfeiTU2t/uJUmrkIwHwlA07Yjky98QUlbvBt/hHeig4UkiHxKAzwjJXyuxjACIIyTOajFAbj1VRmZLEO3cRxbrW0gtW1ULnR4U5ubADydNlzV9ZJ+jY8jjOiGv30QA+SevMQeZQTxk38Enmcsw/JpIVguAYXsg4HrnXG4Z5hwEBbGEme6+SFnUxCTXoLSc7Jf+ThLh2EcO5TMVuayOi6qu5EkChLUyE8pcXWqKcdGBlFuhLs1m8NLVia2bZQI+KQxZFJXtSF6blUEa1kuoVj04gm6YVyJcfs4oqWIgcYdZinWgaF9JPVgMO5OA4gqgRKP5qfMRgb3YWvfr5xR0unCN8zMXkB11b9nf9aXJSZKn4io0EmIvFojmoOaV8JVH3eXYhYCpRg3iMrrCCGd/2xATBmhmGgQ4SkLfOenAVv8jN4peVVoZ8RU8ThXXeC97i3t4LZSgmpPM5Fji14a4ApNcZzS9KQFjVHqkb81XJfIRdRmtPXzwbu6kvtsrHoss7glLul///t/7lF/B+x2NXW2exEwgAAAABJRU5ErkJggg==;" vertex="1" parent="1">
          <mxGeometry x="1264" y="372.69999999999993" width="83" height="83" as="geometry" />
        </mxCell>
        <mxCell id="juJ2ZIPSlug3HuvlYxke-37" style="rounded=0;orthogonalLoop=1;jettySize=auto;html=1;entryX=0;entryY=0.5;entryDx=0;entryDy=0;strokeWidth=2;fillColor=#dae8fc;strokeColor=#6c8ebf;dashed=1;" edge="1" parent="1" source="juJ2ZIPSlug3HuvlYxke-34" target="juJ2ZIPSlug3HuvlYxke-36">
          <mxGeometry relative="1" as="geometry" />
        </mxCell>
        <mxCell id="juJ2ZIPSlug3HuvlYxke-38" value="$$\mathbf{\hat{z}}_{T^{\prime}-1}$$" style="text;whiteSpace=wrap;fontSize=15;align=center;" vertex="1" parent="1">
          <mxGeometry x="699.32" y="343" width="160.43" height="62.96" as="geometry" />
        </mxCell>
        <mxCell id="juJ2ZIPSlug3HuvlYxke-39" value="$$\mathbf{z}_{T^{\prime}-1}$$" style="text;whiteSpace=wrap;fontSize=15;align=center;" vertex="1" parent="1">
          <mxGeometry x="698.3199999999999" y="456" width="160.43" height="62.96" as="geometry" />
        </mxCell>
        <mxCell id="juJ2ZIPSlug3HuvlYxke-40" value="$$\mathbf{\hat{z}}_{T^{\prime}-2}$$" style="text;whiteSpace=wrap;fontSize=15;align=center;" vertex="1" parent="1">
          <mxGeometry x="945.5699999999999" y="343" width="160.43" height="62.96" as="geometry" />
        </mxCell>
        <mxCell id="juJ2ZIPSlug3HuvlYxke-41" value="&lt;font&gt;&lt;b&gt;$$U-Net(\epsilon)$$&lt;/b&gt;&lt;/font&gt;" style="text;html=1;align=center;verticalAlign=middle;whiteSpace=wrap;rounded=0;" vertex="1" parent="1">
          <mxGeometry x="859.75" y="357.48" width="60" height="30" as="geometry" />
        </mxCell>
        <mxCell id="juJ2ZIPSlug3HuvlYxke-42" value="$$\mathbf{z}_{T^{\prime}}$$" style="text;whiteSpace=wrap;fontSize=15;align=center;" vertex="1" parent="1">
          <mxGeometry x="515" y="343" width="160.43" height="62.96" as="geometry" />
        </mxCell>
        <mxCell id="juJ2ZIPSlug3HuvlYxke-43" value="$$\mathbf{z}_{0}$$" style="text;whiteSpace=wrap;fontSize=15;align=center;" vertex="1" parent="1">
          <mxGeometry x="192.17000000000002" y="342.24" width="138.35" height="56.76" as="geometry" />
        </mxCell>
        <mxCell id="juJ2ZIPSlug3HuvlYxke-44" style="rounded=0;orthogonalLoop=1;jettySize=auto;html=1;entryX=0;entryY=0.5;entryDx=0;entryDy=0;strokeWidth=2;fillColor=#fff2cc;strokeColor=#d6b656;" edge="1" parent="1" source="juJ2ZIPSlug3HuvlYxke-45" target="juJ2ZIPSlug3HuvlYxke-48">
          <mxGeometry relative="1" as="geometry" />
        </mxCell>
        <mxCell id="juJ2ZIPSlug3HuvlYxke-45" value="" style="shape=image;verticalLabelPosition=bottom;labelBackgroundColor=default;verticalAlign=top;aspect=fixed;imageAspect=0;image=data:image/png,iVBORw0KGgoAAAANSUhEUgAAAFIAAABTCAYAAAAMcFA+AAAAAXNSR0IArs4c6QAAAARnQU1BAACxjwv8YQUAAAAJcEhZcwAADsMAAA7DAcdvqGQAAA47SURBVHhe7dxniCXFHgXwcs0555wTijlHxICCqJgVsygGDIifVQQRP4ofREEEFVnEjFlBxZwT5pxzzunN7++c5bo8eG/u9MydhXug6e6q6r5Vp84/VPXszvb3CNoQ48JsI5g2ej3EODEksiMMiewIQyI7wpDIjjAksiMMiewIQyI7wpDIjjAksiNM+SXimmuu2RZeeOE2bdq0Nu+881qOtaWWWqpNnz59tMXgYYk4pYncZZdd2hZbbNEWXHDBuv/xxx/bW2+91X744Ye22GKLtSuvvLLKB40pR+TWW2/ddGf22WdvSy+9dFt//fXboosuWkqEP//8s3333Xft1VdfbV9//XW1ueyyy6pukJgSRB577LF1/uuvv9q3335bpjvHHHO0ZZZZpi200EKlxrnmmqvagO7+8ssv7bXXXmuff/55W3755dull146WjsYDJzIAw88sM4UN8888xSBc889d1tggQXar7/+WqQut9xy1YaP/OOPP4pwXf7pp5/ak08+WaQuvvji7Zprrql2g8DAiDzuuOPanHPOWYQsssgiVUZ1b7/9dikQgV988UWbf/7523zzzTdDmcoBqV9++WVd85cffvhhu/HGG+t+EJh0Io8//viKwN98802R5LjtttuqjiIpU0Redtll28orr1zllIdAxDvr7vfff191VIvISy65pO4HhUkl8sQTTyySDF4AoaDtt9++6hDIpJn277//XopDHDPOGQSbr776qq61P++88+p60Jg0Is8+++waOBLWW2+9duutt7YNN9ywfKEDgYCokS6V6pxzj8jffvutffTRR9WOuV944YV1ve+++9b5hhtuqPMggMcJJ/Koo44qM6W0VVddtd11111t0003rTp+kUn3kuYsqABluv/000/rnhlLjS6++OK21VZbVXv3SF5rrbXaVVddVe0mG3icUCLjExN5n3/++RnXypGICIToRkzYNQIdgg4g3T0kYnMTwPzVrbHGGu3qq6+usskEHidsrX3OOefUWVItcb755pvLrEVp90ya4kJa0hrnXHMF2gQIQygfu9pqq1VZnqdiq56jjz66yicbE6LI888/vwb97rvvts0337x8ojMFIoZPzM9SY4hzRJ0///xz1SdqO8DzeeaVV15p7733Xikz5Uil+ptuuqnaTwZGfrd70z799NNrIHyi1cm1117b9tprr8oDEWiwlnmIgJDnCIGSbMQIUDF/9+oR693aa2c19PjjjxeBypwp9s4776z3TwZGfrdbIk844YS2yiqrlEKQefvtt1dgWXHFFYsMBzBDuaCzwacLSAJEwZJLLlkuIH4U+QKLdTbC3Tv40ccee6yWix9//HF75JFH6vnJAh4785FIpLrPPvuslmx33HFHW3vttSu5nhmUqS0gEUkOOzrZoFhppZXKPSgPolKBKhOjjAoHjc6IlGwjKErcZpttKiXpHXAQMxR4PIMwuWHaPPfcc5UzItWzM0NbpJsECoWoXD8GgU6IPO2009onn3xSA7/vvvvabrvtNkNxSApBzDDqQ5A6z8SUEfzQQw/VNYRE7akQ6aK25ywvA9GauVuTDwqdEGlgfBmIzoHyXiCEiqLSXrUhUwQG5C6xxBL/UjGiQFlvuXW7/UkJunKKlL9ONsZF5CmnnNJOPvnk2hc0GBEUMthE5oDiHAcffPBoyT8micCXX365vfPOO+UDbfCKvJDJ8D5tk4SL2Pfcc0+7++672+67715qpFiE89OTjU4Uyddlt8bADdZAfRpAHBWGVIMFe5GCkgj7/vvvV0pElaI+UrTnCx2US6FUT9Xeff3119f22f777z/DjThnW+6ggw5qhxxySF1PBsZNpH3BKDEbEIhDioOKHIhRDkhwXH755ZXGqEeOSG2ZZ+XDvK2tBZCZlW3FQ71HHHFEEQ0U67f9pslEOOy33351nmj0TSQlyPuYNEi+DSTEGRBlIkpkpcwQ4t7AEUW1INfceOONS5GBwJKknLmaNC7A5sRJJ51UZKedKC4Aae/au/1G2kw0+k7ImY4l4CabbFID5dN0HBDptQboUG9AMWvnF198sUj0HLew5ZZb1rpc8EgURi4w+5deeqlWK2+88UY78sgj6zfiNgBxjlxnB10batePidpqG1F//yubvffeuwbq8d5EmtqowjmBgvkxtRAs10zQ4A74NQP2DCXbkBDAwNbbU0891W655ZZyIQcccECV50MZICowOd6h3sQilCVEoWADpUvgsW/TNnDg4A1I53U01zFj9wgyMINkfsqolDtApLM8UQoj0FjyZbkoGFGoyM4KQgaFmajoQHnq9E09+K1cswTqngj0TSSTNHhKNBjEIVCE1XmHslxr5wjxjsB7MkDPhERJ/r333lspjk8V3u23HInm4HkT4/eRZjK0Qax+mkBlvXlr1+iLSHmb2c3Acma6iKAIRClP5w2GSXvOAJFqf5IbEEiS3ojIzJCPlCdyAVZOWcl4X1wGeE8mxbsR6d67TJq+SLPcey83YuXVNfpWJHMMaUjUeUQ6pxxhzhS2wgor1H2IdPjIH1+J5KRRIBjJL/fZZ5/ygdIgZ+8OTILD73sv4pzBtTqgXtfKtJ0I9EWkGYYoIaRRC/MSeflFqrL50LuRkEHnGWaJ6HxSQOzrr79eAca6vRe2yUJOfk8fKJQSQyIzVi71shWnTr8SFLkRq6tjjjmm2neBvolECHUkDYGUAXIMBFFgkKlHlucQbZvNIMGuke/cTNrSEwQY70eW9kEmEUIgcAEJLvrp9/2Ws3YyAocPaiajK4z5TTvuuOO/oiUYFHIQotMGkjwOqJNZahPSg3ynfvTRR+uTBPJD4nXXXVdp0K677lo+NqlNJse198UP6xfFKkeoAGTiKDDkqtt2221rc+WFF16onPTwww+vuvGgrymJAnTSgVQHUnQ0JJtxAzJYBOdQry6K+OCDD9qzzz5b52xoaONdgcR/5k1i701fEBVCEeiIai071fOV0ih9tgiQB0vwu1DmmBNyMynCbrDBBqUAxOgwvxi12UzgpwxSZ11rG8X0RloBxkYun9i77PMug4+S/Cb4w4Lp06dXFAYKzjOgP551mAikcTP64myyWYs/YJUa+c6uv8ZzxRVXjL5lbBgZy9gT8ieeeKI68+abb9YgzAPTjd/L3ysyQ+mGzQURN/UGx9QQyGyRwqz9YZXBqvfeqCurncAnjM0222z07h+YFITlOuTLQz2vjBpNhoAjBfKN3Xt32mmnUqwvkvrQL/rStA9NOpnozP/pqGOPPfaoQSEtBGelokxbRDnshpsUaQmoc8RcqSoEmRSHvxeyO2RyEBE/CHEZ4COYDZBYCXAzLIKFeAcxIJ0aETyeVc+4viL602SRUQdjFog0GKQZoI5mAPnDAKBC/spWmLqQoC0X4FnnKBMQzleC9/T+KZ9JBJMn5aI+79QPvtfkUJ57EZvFWAhQJzPXF32i+LGCaY/7c6yPXPDwww/XGbk6rcMIMjBkIiU/ZWDUteeee1YizvTAczFL13yf94B3pZ2dotVXX72u/YGpNlExf2fClJkYv6kP3IgyzzlLpRz64n7nnXeuLbqLLrqo3jMW4HHc4QqBIRF0GrL2NRgEMHHmSAWut9tuuyLKQJTHVCmFGj3HHQCSEBITBtH2wQcfbIceeuhoyb/h+QQ4kyMxV+Y578s3c5kAVfLlJqBfjD/uzwRE8nNIMQCd5qcQpY5ftcZGiuipHnna9ibc2vb6N+8LRPinn3569K6Ve1BvUpDSS7hJ5B68H1H5yzblojYyPTPe7zzjNu3/BuZOkUiKcwezjmQpEfKcDVA9lfKPfC5Tg6RNQE3ahiTkZOlpm623XgBTpywwTGSbIIm4tT81+i3K51cvuOCC0dZjA9OeECLBl0CmG1Xdf//9dQbK4PitnRGOAIQLJpTi6F2fq4urAIFFm3QdEX4rJCPf9cxE6gviZAyCC8swIdb2cO6559Z5rMDjhBH5vyBgMCnLPSQwMYNXhiTKRBzSEJPojfS4C+rmHrJTD9q69ixXkQlR5vAcVUp17D4l2lP/eIjs3Ef+v5CLIozPpBIJuoEiycFnKddGhE9CD661RyrzREyeC6GuBRT5bsogLkDe2JuD9ktiMDBFBjvssEMNjuM3OIpxphQ+E0kG7D5ugmnKE3NPhb3pUc6GluGljLJNSLbtTGT+KLZfjLx7cIoMHnjggVJYTBEhuRdhqQeSCYj+CM69g4/0DHU5kNZLoHr3SDRhmYAovAsMXJHBuuuuW18M+bQMmjKpjSoRyo8pT/ARnBJQmLD6EA9RYe+ZmqNGz5511ll1PR6MvHfwigysKvg9618DzRJOmQEzbSQh2UFNSMk9fyiARJmQuhzUmz9ogC5IDKaMIoONNtqo1CZFip8UOChxnXXWqTaWe8kx1WWjN2DKVGsCPGeIyrgF4DLy73S6wJRSZGCDl6pEaqpz5g+pzDoayTZllalXzucpB+UIpD4Ept57mDZ0SWIw5YiEZ555ppJkZt1LFkXl78ORIoeM0pCsPfCpyvNsL84888zRq24x5Uy7F3ZqfKiS6iCNuUvYESahZ958nmSeKSMtwUY7yDoeuvxq2AumPaWJBJuz/hY9G6/IRIw/b+EfwXLP6ig+kS/NJoTzGWecUdcThVmCSOATpUYiswTaHiYymW/qBSbEOlOmtnDYYYfVeSIxyxAZ2Hy1Bhc45JvJI20+jAyl2kjqmTqceuqpdZ5ozHJEUh5/addIDukvfKVH/GD+EYA/tppszHJEBvmcQXkUyj8yeRjEf2EzyxI51YDHKZlHzooYEtkRhkR2hCGRHWFIZEcYEtkRhkR2hCGRHWFIZEcYEtkRhkR2hCGRHWFI5BBTCa39B2Xs3Y4lAAQQAAAAAElFTkSuQmCC;imageBorder=default;strokeWidth=2;" vertex="1" parent="1">
          <mxGeometry x="8.999999999999986" y="500.2199999999999" width="82" height="83" as="geometry" />
        </mxCell>
        <mxCell id="juJ2ZIPSlug3HuvlYxke-46" value="" style="group" vertex="1" connectable="0" parent="1">
          <mxGeometry x="128" y="489" width="48.953210010881406" height="105.4493580599144" as="geometry" />
        </mxCell>
        <mxCell id="juJ2ZIPSlug3HuvlYxke-47" value="" style="shape=trapezoid;perimeter=trapezoidPerimeter;whiteSpace=wrap;html=1;fixedSize=1;direction=south;fillColor=#ffe6cc;strokeColor=#d79b00;strokeWidth=2;" vertex="1" parent="juJ2ZIPSlug3HuvlYxke-46">
          <mxGeometry y="5.684341886080802e-14" width="48.9532100108814" height="100.42796005706134" as="geometry" />
        </mxCell>
        <mxCell id="juJ2ZIPSlug3HuvlYxke-48" value="$$\varepsilon_{3D}$$" style="text;whiteSpace=wrap;strokeWidth=5;fontFamily=Times New Roman;fontSize=24;align=center;fontStyle=3;" vertex="1" parent="juJ2ZIPSlug3HuvlYxke-46">
          <mxGeometry width="48.9532100108814" height="105.4493580599144" as="geometry" />
        </mxCell>
        <mxCell id="juJ2ZIPSlug3HuvlYxke-49" value="" style="html=1;whiteSpace=wrap;shape=isoCube2;backgroundOutline=1;isoAngle=15;direction=east;fillColor=#ffcc99;strokeColor=#36393d;strokeWidth=2;" vertex="1" parent="1">
          <mxGeometry x="215" y="502" width="30" height="80" as="geometry" />
        </mxCell>
        <mxCell id="juJ2ZIPSlug3HuvlYxke-50" value="&lt;b&gt;&lt;font face=&quot;Times New Roman&quot; style=&quot;font-size: 15px;&quot;&gt;MLP&lt;/font&gt;&lt;/b&gt;" style="rounded=1;whiteSpace=wrap;html=1;fillColor=#d5e8d4;strokeColor=#82b366;" vertex="1" parent="1">
          <mxGeometry x="337" y="445.4" width="79" height="31.6" as="geometry" />
        </mxCell>
        <mxCell id="juJ2ZIPSlug3HuvlYxke-51" value="" style="html=1;whiteSpace=wrap;shape=isoCube2;backgroundOutline=1;isoAngle=15;direction=east;fillColor=#fff2cc;strokeColor=#d6b656;strokeWidth=2;" vertex="1" parent="1">
          <mxGeometry x="361.50000000000006" y="502.0000000000001" width="30" height="80" as="geometry" />
        </mxCell>
        <mxCell id="juJ2ZIPSlug3HuvlYxke-52" style="edgeStyle=orthogonalEdgeStyle;rounded=0;orthogonalLoop=1;jettySize=auto;html=1;entryX=0.5;entryY=0;entryDx=0;entryDy=0;entryPerimeter=0;strokeWidth=2;fillColor=#ffe6cc;strokeColor=#d79b00;" edge="1" parent="1" source="juJ2ZIPSlug3HuvlYxke-50" target="juJ2ZIPSlug3HuvlYxke-51">
          <mxGeometry relative="1" as="geometry" />
        </mxCell>
        <mxCell id="juJ2ZIPSlug3HuvlYxke-53" style="rounded=0;orthogonalLoop=1;jettySize=auto;html=1;entryX=0;entryY=0.5;entryDx=0;entryDy=0;entryPerimeter=0;strokeWidth=2;fillColor=#fff2cc;strokeColor=#d6b656;" edge="1" parent="1" source="juJ2ZIPSlug3HuvlYxke-48" target="juJ2ZIPSlug3HuvlYxke-49">
          <mxGeometry relative="1" as="geometry" />
        </mxCell>
        <mxCell id="juJ2ZIPSlug3HuvlYxke-54" value="&lt;font face=&quot;Times New Roman&quot; style=&quot;font-size: 15px;&quot;&gt;&lt;b&gt;Loss&lt;sub style=&quot;&quot;&gt;&lt;i&gt;3D&lt;/i&gt;&lt;/sub&gt;&lt;/b&gt;&lt;/font&gt;" style="text;html=1;align=center;verticalAlign=middle;resizable=0;points=[];autosize=1;strokeColor=#D79B00;fillColor=none;dashed=1;rounded=1;" vertex="1" parent="1">
          <mxGeometry x="267" y="522" width="70" height="40" as="geometry" />
        </mxCell>
        <mxCell id="juJ2ZIPSlug3HuvlYxke-55" value="&lt;font face=&quot;Times New Roman&quot; style=&quot;font-size: 15px;&quot;&gt;&lt;b&gt;Loss&lt;i&gt;&lt;sub&gt;2&lt;/sub&gt;&lt;sub style=&quot;&quot;&gt;D&lt;/sub&gt;&lt;/i&gt;&lt;/b&gt;&lt;/font&gt;" style="text;html=1;align=center;verticalAlign=middle;resizable=0;points=[];autosize=1;strokeColor=#6C8EBF;fillColor=none;dashed=1;rounded=1;" vertex="1" parent="1">
          <mxGeometry x="953.22" y="511" width="70" height="40" as="geometry" />
        </mxCell>
        <mxCell id="juJ2ZIPSlug3HuvlYxke-56" style="edgeStyle=orthogonalEdgeStyle;rounded=0;orthogonalLoop=1;jettySize=auto;html=1;entryX=0;entryY=0.5;entryDx=0;entryDy=0;entryPerimeter=0;strokeWidth=2;fillColor=#f5f5f5;strokeColor=#D79B00;dashed=1;" edge="1" parent="1" source="juJ2ZIPSlug3HuvlYxke-54" target="juJ2ZIPSlug3HuvlYxke-51">
          <mxGeometry relative="1" as="geometry" />
        </mxCell>
        <mxCell id="juJ2ZIPSlug3HuvlYxke-57" style="edgeStyle=orthogonalEdgeStyle;rounded=0;orthogonalLoop=1;jettySize=auto;html=1;entryX=1;entryY=0.5;entryDx=0;entryDy=0;entryPerimeter=0;strokeWidth=2;fillColor=#f5f5f5;strokeColor=#D79B00;" edge="1" parent="1" source="juJ2ZIPSlug3HuvlYxke-54" target="juJ2ZIPSlug3HuvlYxke-49">
          <mxGeometry relative="1" as="geometry" />
        </mxCell>
        <mxCell id="juJ2ZIPSlug3HuvlYxke-58" style="edgeStyle=orthogonalEdgeStyle;rounded=0;orthogonalLoop=1;jettySize=auto;html=1;entryX=0;entryY=0.5;entryDx=0;entryDy=0;entryPerimeter=0;strokeWidth=2;fillColor=#dae8fc;strokeColor=#6c8ebf;dashed=1;" edge="1" parent="1" source="juJ2ZIPSlug3HuvlYxke-10" target="juJ2ZIPSlug3HuvlYxke-20">
          <mxGeometry relative="1" as="geometry">
            <Array as="points">
              <mxPoint x="473" y="527" />
            </Array>
          </mxGeometry>
        </mxCell>
        <mxCell id="juJ2ZIPSlug3HuvlYxke-59" value="$$\mathbf{y}_{0}$$" style="text;whiteSpace=wrap;align=center;fontSize=15;" vertex="1" parent="1">
          <mxGeometry x="186.35" y="466.9299999999999" width="150" height="59" as="geometry" />
        </mxCell>
        <mxCell id="juJ2ZIPSlug3HuvlYxke-60" value="$$\hat{\mathbf{y}}_0$$" style="text;whiteSpace=wrap;fontSize=15;align=center;" vertex="1" parent="1">
          <mxGeometry x="332" y="467.95" width="150" height="59" as="geometry" />
        </mxCell>
        <mxCell id="juJ2ZIPSlug3HuvlYxke-61" value="$$\mathrm{Eq.(3)}$$" style="text;whiteSpace=wrap;align=center;fontStyle=1" vertex="1" parent="1">
          <mxGeometry x="511.2" y="480.08" width="139" height="45.85" as="geometry" />
        </mxCell>
        <mxCell id="juJ2ZIPSlug3HuvlYxke-62" value="" style="rounded=1;whiteSpace=wrap;html=1;strokeWidth=2;dashed=1;" vertex="1" parent="1">
          <mxGeometry x="10" y="610" width="500" height="190" as="geometry" />
        </mxCell>
        <mxCell id="juJ2ZIPSlug3HuvlYxke-63" style="rounded=0;orthogonalLoop=1;jettySize=auto;html=1;entryX=0.25;entryY=1;entryDx=0;entryDy=0;strokeWidth=2;fillColor=#dae8fc;strokeColor=#6c8ebf;dashed=1;" edge="1" parent="1" source="juJ2ZIPSlug3HuvlYxke-64" target="juJ2ZIPSlug3HuvlYxke-10">
          <mxGeometry relative="1" as="geometry" />
        </mxCell>
        <mxCell id="juJ2ZIPSlug3HuvlYxke-64" value="&lt;font face=&quot;Times New Roman&quot; style=&quot;font-size: 20px;&quot;&gt;&lt;b&gt;T&#39;&lt;/b&gt;&lt;/font&gt;" style="text;html=1;align=center;verticalAlign=middle;resizable=0;points=[];autosize=1;strokeColor=none;fillColor=none;" vertex="1" parent="1">
          <mxGeometry x="433.98" y="526.95" width="40" height="40" as="geometry" />
        </mxCell>
        <mxCell id="juJ2ZIPSlug3HuvlYxke-65" value="&lt;font face=&quot;Times New Roman&quot;&gt;&lt;span style=&quot;font-size: 16px;&quot;&gt;&lt;b&gt;&lt;i&gt;Dynamic Step Generator&lt;/i&gt;&lt;/b&gt;&lt;/span&gt;&lt;/font&gt;" style="text;html=1;align=center;verticalAlign=middle;resizable=0;points=[];autosize=1;strokeColor=none;fillColor=none;" vertex="1" parent="1">
          <mxGeometry x="21.32" y="620.0000000000001" width="190" height="30" as="geometry" />
        </mxCell>
        <mxCell id="juJ2ZIPSlug3HuvlYxke-66" value="" style="rounded=1;whiteSpace=wrap;html=1;dashed=1;" vertex="1" parent="1">
          <mxGeometry x="541" y="610" width="822" height="190" as="geometry" />
        </mxCell>
        <mxCell id="juJ2ZIPSlug3HuvlYxke-67" value="$$\hat{\mathbf{z}}_0$$" style="text;whiteSpace=wrap;fontSize=15;align=center;" vertex="1" parent="1">
          <mxGeometry x="1084.25" y="344.98" width="150" height="59" as="geometry" />
        </mxCell>
        <mxCell id="juJ2ZIPSlug3HuvlYxke-68" value="" style="endArrow=classic;html=1;rounded=0;entryX=0.476;entryY=1.064;entryDx=0;entryDy=0;entryPerimeter=0;strokeWidth=2;fillColor=#dae8fc;strokeColor=#6c8ebf;dashed=1;" edge="1" parent="1" target="juJ2ZIPSlug3HuvlYxke-64">
          <mxGeometry width="50" height="50" relative="1" as="geometry">
            <mxPoint x="453" y="610" as="sourcePoint" />
            <mxPoint x="460" y="680" as="targetPoint" />
          </mxGeometry>
        </mxCell>
        <mxCell id="juJ2ZIPSlug3HuvlYxke-69" value="$$\hat{\mathbf{x}}_0$$" style="text;whiteSpace=wrap;fontSize=15;align=center;" vertex="1" parent="1">
          <mxGeometry x="1231.25" y="328.48" width="150" height="59" as="geometry" />
        </mxCell>
        <mxCell id="juJ2ZIPSlug3HuvlYxke-70" value="$${\mathbf{x}}_0$$" style="text;whiteSpace=wrap;fontSize=15;align=center;fontStyle=1" vertex="1" parent="1">
          <mxGeometry x="-25" y="328.48" width="150" height="59" as="geometry" />
        </mxCell>
        <mxCell id="juJ2ZIPSlug3HuvlYxke-71" value="" style="group" vertex="1" connectable="0" parent="1">
          <mxGeometry x="567.75" y="620" width="34" height="78" as="geometry" />
        </mxCell>
        <mxCell id="juJ2ZIPSlug3HuvlYxke-72" value="" style="shape=trapezoid;perimeter=trapezoidPerimeter;whiteSpace=wrap;html=1;fixedSize=1;direction=south;fillColor=#dae8fc;strokeColor=#7EA6E0;strokeWidth=2;" vertex="1" parent="juJ2ZIPSlug3HuvlYxke-71">
          <mxGeometry width="33.99999999999999" height="74.28571428571425" as="geometry" />
        </mxCell>
        <mxCell id="juJ2ZIPSlug3HuvlYxke-73" value="$$\varepsilon_{2D}$$" style="text;whiteSpace=wrap;strokeWidth=5;fontFamily=Times New Roman;fontSize=18;align=center;fontStyle=3;" vertex="1" parent="juJ2ZIPSlug3HuvlYxke-71">
          <mxGeometry y="4.204659708429734e-14" width="33.99999999999999" height="77.99999999999996" as="geometry" />
        </mxCell>
        <mxCell id="juJ2ZIPSlug3HuvlYxke-74" value="" style="group" vertex="1" connectable="0" parent="1">
          <mxGeometry x="567.75" y="710" width="34" height="78" as="geometry" />
        </mxCell>
        <mxCell id="juJ2ZIPSlug3HuvlYxke-75" value="" style="shape=trapezoid;perimeter=trapezoidPerimeter;whiteSpace=wrap;html=1;fixedSize=1;direction=south;fillColor=#ffe6cc;strokeColor=#d79b00;strokeWidth=2;" vertex="1" parent="juJ2ZIPSlug3HuvlYxke-74">
          <mxGeometry y="4.2046597084297356e-14" width="33.99999999999999" height="74.28571428571428" as="geometry" />
        </mxCell>
        <mxCell id="juJ2ZIPSlug3HuvlYxke-76" value="$$\varepsilon_{3D}$$" style="text;whiteSpace=wrap;strokeWidth=5;fontFamily=Times New Roman;fontSize=18;align=center;fontStyle=3;" vertex="1" parent="juJ2ZIPSlug3HuvlYxke-74">
          <mxGeometry width="33.99999999999999" height="78" as="geometry" />
        </mxCell>
        <mxCell id="juJ2ZIPSlug3HuvlYxke-77" value="&lt;b&gt;&lt;font style=&quot;font-size: 14px;&quot; face=&quot;Times New Roman&quot;&gt;2D Feature Extractor&lt;/font&gt;&lt;/b&gt;" style="text;html=1;align=center;verticalAlign=middle;whiteSpace=wrap;rounded=0;" vertex="1" parent="1">
          <mxGeometry x="619.2" y="644" width="108.3" height="30" as="geometry" />
        </mxCell>
        <mxCell id="juJ2ZIPSlug3HuvlYxke-78" value="&lt;b&gt;&lt;font style=&quot;font-size: 14px;&quot; face=&quot;Times New Roman&quot;&gt;3D Feature Extractor&lt;/font&gt;&lt;/b&gt;" style="text;html=1;align=center;verticalAlign=middle;whiteSpace=wrap;rounded=0;" vertex="1" parent="1">
          <mxGeometry x="610.33" y="734" width="126.05" height="30" as="geometry" />
        </mxCell>
        <mxCell id="juJ2ZIPSlug3HuvlYxke-79" value="&lt;font style=&quot;font-size: 14px;&quot; face=&quot;Times New Roman&quot;&gt;&lt;b style=&quot;&quot;&gt;Decoder&lt;/b&gt;&lt;/font&gt;" style="text;html=1;align=center;verticalAlign=middle;resizable=0;points=[];autosize=1;strokeColor=none;fillColor=none;" vertex="1" parent="1">
          <mxGeometry x="808.5" y="640.21" width="70" height="30" as="geometry" />
        </mxCell>
        <mxCell id="juJ2ZIPSlug3HuvlYxke-80" value="" style="group" vertex="1" connectable="0" parent="1">
          <mxGeometry x="747.75" y="620" width="40" height="70.43000000000006" as="geometry" />
        </mxCell>
        <mxCell id="juJ2ZIPSlug3HuvlYxke-81" value="" style="shape=trapezoid;perimeter=trapezoidPerimeter;whiteSpace=wrap;html=1;fixedSize=1;direction=south;fillColor=#dae8fc;strokeColor=#7EA6E0;strokeWidth=2;rotation=-180;" vertex="1" parent="juJ2ZIPSlug3HuvlYxke-80">
          <mxGeometry x="2.519999999999982" width="34.95" height="70.43" as="geometry" />
        </mxCell>
        <mxCell id="juJ2ZIPSlug3HuvlYxke-82" value="&lt;b&gt;&lt;font style=&quot;font-size: 19px;&quot; face=&quot;Times New Roman&quot;&gt;D&lt;/font&gt;&lt;/b&gt;" style="text;html=1;align=center;verticalAlign=middle;resizable=0;points=[];autosize=1;strokeColor=none;fillColor=none;" vertex="1" parent="juJ2ZIPSlug3HuvlYxke-80">
          <mxGeometry y="14" width="40" height="40" as="geometry" />
        </mxCell>
        <mxCell id="juJ2ZIPSlug3HuvlYxke-83" value="&lt;font style=&quot;font-size: 14px;&quot;&gt;&lt;b&gt;D&lt;/b&gt;&lt;/font&gt;" style="ellipse;whiteSpace=wrap;html=1;aspect=fixed;strokeWidth=2;" vertex="1" parent="1">
          <mxGeometry x="751.75" y="730" width="32" height="32" as="geometry" />
        </mxCell>
        <mxCell id="juJ2ZIPSlug3HuvlYxke-84" value="&lt;b&gt;&lt;font face=&quot;Times New Roman&quot; style=&quot;font-size: 14px;&quot;&gt;Euclidean distance and sigmoid&lt;/font&gt;&lt;/b&gt;" style="text;html=1;align=center;verticalAlign=middle;whiteSpace=wrap;rounded=0;" vertex="1" parent="1">
          <mxGeometry x="790.7900000000001" y="732" width="112.53" height="30" as="geometry" />
        </mxCell>
        <mxCell id="juJ2ZIPSlug3HuvlYxke-85" value="&lt;b&gt;&lt;font style=&quot;font-size: 14px;&quot; face=&quot;Times New Roman&quot;&gt;Traing-Stage one&lt;/font&gt;&lt;/b&gt;" style="text;html=1;align=center;verticalAlign=middle;whiteSpace=wrap;rounded=0;" vertex="1" parent="1">
          <mxGeometry x="975.5" y="639.21" width="80.5" height="30" as="geometry" />
        </mxCell>
        <mxCell id="juJ2ZIPSlug3HuvlYxke-86" value="" style="endArrow=classic;html=1;rounded=0;exitX=1.044;exitY=0.307;exitDx=0;exitDy=0;exitPerimeter=0;strokeColor=#D79B00;strokeWidth=2;" edge="1" parent="1">
          <mxGeometry width="50" height="50" relative="1" as="geometry">
            <mxPoint x="918.5" y="654.21" as="sourcePoint" />
            <mxPoint x="958.55" y="654.21" as="targetPoint" />
          </mxGeometry>
        </mxCell>
        <mxCell id="juJ2ZIPSlug3HuvlYxke-87" value="" style="endArrow=classic;html=1;rounded=0;exitX=1.044;exitY=0.307;exitDx=0;exitDy=0;exitPerimeter=0;strokeColor=#7EA6E0;strokeWidth=2;" edge="1" parent="1">
          <mxGeometry width="50" height="50" relative="1" as="geometry">
            <mxPoint x="918.5" y="745.9" as="sourcePoint" />
            <mxPoint x="958.55" y="746" as="targetPoint" />
          </mxGeometry>
        </mxCell>
        <mxCell id="juJ2ZIPSlug3HuvlYxke-88" value="&lt;b&gt;&lt;font style=&quot;font-size: 14px;&quot; face=&quot;Times New Roman&quot;&gt;Traing-&lt;/font&gt;&lt;/b&gt;&lt;b&gt;&lt;font style=&quot;font-size: 14px;&quot; face=&quot;Times New Roman&quot;&gt;Stage two&lt;/font&gt;&lt;/b&gt;" style="text;html=1;align=center;verticalAlign=middle;whiteSpace=wrap;rounded=0;" vertex="1" parent="1">
          <mxGeometry x="975.5" y="731" width="92.2" height="30" as="geometry" />
        </mxCell>
        <mxCell id="juJ2ZIPSlug3HuvlYxke-89" value="" style="rhombus;whiteSpace=wrap;html=1;fillColor=#B9E0A5;strokeColor=#97D077;" vertex="1" parent="1">
          <mxGeometry x="1084.25" y="742.9999999999999" width="12" height="12" as="geometry" />
        </mxCell>
        <mxCell id="juJ2ZIPSlug3HuvlYxke-90" value="&lt;b&gt;&lt;font style=&quot;font-size: 14px;&quot; face=&quot;Times New Roman&quot;&gt;normal feature(train)&lt;/font&gt;&lt;/b&gt;" style="text;html=1;align=center;verticalAlign=middle;whiteSpace=wrap;rounded=0;" vertex="1" parent="1">
          <mxGeometry x="1111.65" y="730" width="129" height="30" as="geometry" />
        </mxCell>
        <mxCell id="juJ2ZIPSlug3HuvlYxke-91" value="" style="triangle;whiteSpace=wrap;html=1;direction=north;fillColor=#B9E0A5;strokeColor=#97D077;" vertex="1" parent="1">
          <mxGeometry x="1239.7499999999998" y="739.9999999999999" width="12" height="12" as="geometry" />
        </mxCell>
        <mxCell id="juJ2ZIPSlug3HuvlYxke-92" value="&lt;b&gt;&lt;font face=&quot;Times New Roman&quot; style=&quot;font-size: 14px;&quot;&gt;normal feature(test)&lt;/font&gt;&lt;/b&gt;" style="text;html=1;align=center;verticalAlign=middle;whiteSpace=wrap;rounded=0;" vertex="1" parent="1">
          <mxGeometry x="1255.72" y="731" width="115.55" height="30" as="geometry" />
        </mxCell>
        <mxCell id="juJ2ZIPSlug3HuvlYxke-93" value="" style="triangle;whiteSpace=wrap;html=1;direction=north;fillColor=#FF0B0B;strokeColor=#EA6B66;" vertex="1" parent="1">
          <mxGeometry x="1239.75" y="645.21" width="12" height="12" as="geometry" />
        </mxCell>
        <mxCell id="juJ2ZIPSlug3HuvlYxke-94" value="&lt;b&gt;&lt;font style=&quot;font-size: 14px;&quot; face=&quot;Times New Roman&quot;&gt;abnormal feature(test)&lt;/font&gt;&lt;/b&gt;" style="text;html=1;align=center;verticalAlign=middle;whiteSpace=wrap;rounded=0;" vertex="1" parent="1">
          <mxGeometry x="1249" y="636.21" width="129" height="30" as="geometry" />
        </mxCell>
        <mxCell id="juJ2ZIPSlug3HuvlYxke-95" value="" style="rounded=0;whiteSpace=wrap;html=1;direction=west;gradientColor=#B40A0A;gradientDirection=west;" vertex="1" parent="1">
          <mxGeometry x="189.5" y="764" width="199.5" height="18" as="geometry" />
        </mxCell>
        <mxCell id="juJ2ZIPSlug3HuvlYxke-96" value="" style="group" vertex="1" connectable="0" parent="1">
          <mxGeometry x="189" y="726" width="200" height="20" as="geometry" />
        </mxCell>
        <mxCell id="juJ2ZIPSlug3HuvlYxke-97" value="1" style="rounded=0;whiteSpace=wrap;html=1;" vertex="1" parent="juJ2ZIPSlug3HuvlYxke-96">
          <mxGeometry width="20" height="20" as="geometry" />
        </mxCell>
        <mxCell id="juJ2ZIPSlug3HuvlYxke-98" value="2" style="rounded=0;whiteSpace=wrap;html=1;" vertex="1" parent="juJ2ZIPSlug3HuvlYxke-96">
          <mxGeometry x="20" width="20" height="20" as="geometry" />
        </mxCell>
        <mxCell id="juJ2ZIPSlug3HuvlYxke-99" value="5" style="rounded=0;whiteSpace=wrap;html=1;" vertex="1" parent="juJ2ZIPSlug3HuvlYxke-96">
          <mxGeometry x="80" width="20" height="20" as="geometry" />
        </mxCell>
        <mxCell id="juJ2ZIPSlug3HuvlYxke-100" value="4" style="rounded=0;whiteSpace=wrap;html=1;" vertex="1" parent="juJ2ZIPSlug3HuvlYxke-96">
          <mxGeometry x="60" width="20" height="20" as="geometry" />
        </mxCell>
        <mxCell id="juJ2ZIPSlug3HuvlYxke-101" value="3" style="rounded=0;whiteSpace=wrap;html=1;" vertex="1" parent="juJ2ZIPSlug3HuvlYxke-96">
          <mxGeometry x="40" width="20" height="20" as="geometry" />
        </mxCell>
        <mxCell id="juJ2ZIPSlug3HuvlYxke-102" value="8" style="rounded=0;whiteSpace=wrap;html=1;" vertex="1" parent="juJ2ZIPSlug3HuvlYxke-96">
          <mxGeometry x="140" width="20" height="20" as="geometry" />
        </mxCell>
        <mxCell id="juJ2ZIPSlug3HuvlYxke-103" value="7" style="rounded=0;whiteSpace=wrap;html=1;" vertex="1" parent="juJ2ZIPSlug3HuvlYxke-96">
          <mxGeometry x="120" width="20" height="20" as="geometry" />
        </mxCell>
        <mxCell id="juJ2ZIPSlug3HuvlYxke-104" value="6" style="rounded=0;whiteSpace=wrap;html=1;" vertex="1" parent="juJ2ZIPSlug3HuvlYxke-96">
          <mxGeometry x="100" width="20" height="20" as="geometry" />
        </mxCell>
        <mxCell id="juJ2ZIPSlug3HuvlYxke-105" value="9" style="rounded=0;whiteSpace=wrap;html=1;" vertex="1" parent="juJ2ZIPSlug3HuvlYxke-96">
          <mxGeometry x="160" width="20" height="20" as="geometry" />
        </mxCell>
        <mxCell id="juJ2ZIPSlug3HuvlYxke-106" value="10" style="rounded=0;whiteSpace=wrap;html=1;" vertex="1" parent="juJ2ZIPSlug3HuvlYxke-96">
          <mxGeometry x="180" width="20" height="20" as="geometry" />
        </mxCell>
        <mxCell id="juJ2ZIPSlug3HuvlYxke-107" value="Bins" style="text;html=1;align=center;verticalAlign=middle;whiteSpace=wrap;rounded=0;fontFamily=Times New Roman;fontStyle=1" vertex="1" parent="1">
          <mxGeometry x="395.5" y="719" width="60" height="30" as="geometry" />
        </mxCell>
        <mxCell id="juJ2ZIPSlug3HuvlYxke-108" value="Anomaly Score" style="text;html=1;align=center;verticalAlign=middle;whiteSpace=wrap;rounded=0;fontFamily=Times New Roman;fontStyle=1" vertex="1" parent="1">
          <mxGeometry x="395.5" y="758" width="60" height="30" as="geometry" />
        </mxCell>
        <mxCell id="juJ2ZIPSlug3HuvlYxke-109" value="&lt;span style=&quot;font-family: &amp;quot;Times New Roman&amp;quot;; font-size: 18px; font-weight: 400; text-wrap-mode: wrap;&quot;&gt;KNN&lt;/span&gt;" style="text;strokeColor=#d6b656;fillColor=#fff2cc;html=1;fontSize=24;fontStyle=1;verticalAlign=middle;align=center;rounded=1;strokeWidth=2;" vertex="1" parent="1">
          <mxGeometry x="103.35000000000022" y="685" width="78" height="29" as="geometry" />
        </mxCell>
        <mxCell id="juJ2ZIPSlug3HuvlYxke-112" value="" style="ellipse;whiteSpace=wrap;html=1;aspect=fixed;fillColor=#ffe6cc;strokeColor=default;dashed=1;" vertex="1" parent="1">
          <mxGeometry x="323.87" y="620" width="90" height="90" as="geometry" />
        </mxCell>
        <mxCell id="juJ2ZIPSlug3HuvlYxke-113" value="" style="ellipse;whiteSpace=wrap;html=1;aspect=fixed;fillColor=#ffe6cc;strokeColor=default;dashed=1;" vertex="1" parent="1">
          <mxGeometry x="210" y="646.95" width="65.05" height="65.05" as="geometry" />
        </mxCell>
        <mxCell id="juJ2ZIPSlug3HuvlYxke-114" value="" style="triangle;whiteSpace=wrap;html=1;direction=north;fillColor=#B9E0A5;strokeColor=#97D077;" vertex="1" parent="1">
          <mxGeometry x="311.87" y="675" width="12" height="12" as="geometry" />
        </mxCell>
        <mxCell id="juJ2ZIPSlug3HuvlYxke-115" value="" style="triangle;whiteSpace=wrap;html=1;direction=north;fillColor=#B9E0A5;strokeColor=#97D077;" vertex="1" parent="1">
          <mxGeometry x="231.12" y="662" width="12" height="12" as="geometry" />
        </mxCell>
        <mxCell id="juJ2ZIPSlug3HuvlYxke-116" value="" style="rhombus;whiteSpace=wrap;html=1;fillColor=#B9E0A5;strokeColor=#97D077;" vertex="1" parent="1">
          <mxGeometry x="255.35" y="678.43" width="12" height="12" as="geometry" />
        </mxCell>
        <mxCell id="juJ2ZIPSlug3HuvlYxke-117" value="" style="rhombus;whiteSpace=wrap;html=1;fillColor=#B9E0A5;strokeColor=#97D077;" vertex="1" parent="1">
          <mxGeometry x="219.12" y="658" width="12" height="12" as="geometry" />
        </mxCell>
        <mxCell id="juJ2ZIPSlug3HuvlYxke-118" value="" style="rhombus;whiteSpace=wrap;html=1;fillColor=#B9E0A5;strokeColor=#97D077;" vertex="1" parent="1">
          <mxGeometry x="350" y="687" width="12" height="12" as="geometry" />
        </mxCell>
        <mxCell id="juJ2ZIPSlug3HuvlYxke-119" value="" style="rhombus;whiteSpace=wrap;html=1;fillColor=#B9E0A5;strokeColor=#97D077;" vertex="1" parent="1">
          <mxGeometry x="256.12" y="659" width="12" height="12" as="geometry" />
        </mxCell>
        <mxCell id="juJ2ZIPSlug3HuvlYxke-120" value="" style="rhombus;whiteSpace=wrap;html=1;fillColor=#B9E0A5;strokeColor=#97D077;" vertex="1" parent="1">
          <mxGeometry x="283.25" y="663" width="12" height="12" as="geometry" />
        </mxCell>
        <mxCell id="juJ2ZIPSlug3HuvlYxke-122" value="" style="rhombus;whiteSpace=wrap;html=1;fillColor=#B9E0A5;strokeColor=#97D077;" vertex="1" parent="1">
          <mxGeometry x="323.87" y="657.21" width="12" height="12" as="geometry" />
        </mxCell>
        <mxCell id="juJ2ZIPSlug3HuvlYxke-123" value="" style="rhombus;whiteSpace=wrap;html=1;fillColor=#B9E0A5;strokeColor=#97D077;" vertex="1" parent="1">
          <mxGeometry x="346" y="656" width="12" height="12" as="geometry" />
        </mxCell>
        <mxCell id="juJ2ZIPSlug3HuvlYxke-124" value="" style="rhombus;whiteSpace=wrap;html=1;fillColor=#B9E0A5;strokeColor=#97D077;" vertex="1" parent="1">
          <mxGeometry x="337" y="673" width="12" height="12" as="geometry" />
        </mxCell>
        <mxCell id="juJ2ZIPSlug3HuvlYxke-125" value="" style="rhombus;whiteSpace=wrap;html=1;fillColor=#B9E0A5;strokeColor=#97D077;" vertex="1" parent="1">
          <mxGeometry x="283.25" y="686" width="12" height="12" as="geometry" />
        </mxCell>
        <mxCell id="juJ2ZIPSlug3HuvlYxke-126" value="" style="rhombus;whiteSpace=wrap;html=1;fillColor=#B9E0A5;strokeColor=#97D077;" vertex="1" parent="1">
          <mxGeometry x="233.12" y="695" width="12" height="12" as="geometry" />
        </mxCell>
        <mxCell id="juJ2ZIPSlug3HuvlYxke-127" value="" style="rhombus;whiteSpace=wrap;html=1;fillColor=#B9E0A5;strokeColor=#97D077;" vertex="1" parent="1">
          <mxGeometry x="288.37" y="640" width="12" height="12" as="geometry" />
        </mxCell>
        <mxCell id="juJ2ZIPSlug3HuvlYxke-128" value="" style="triangle;whiteSpace=wrap;html=1;direction=north;fillColor=#FF0B0B;strokeColor=#EA6B66;" vertex="1" parent="1">
          <mxGeometry x="383.5" y="653" width="12" height="12" as="geometry" />
        </mxCell>
        <mxCell id="juJ2ZIPSlug3HuvlYxke-129" value="" style="rhombus;whiteSpace=wrap;html=1;fillColor=#B9E0A5;strokeColor=#97D077;" vertex="1" parent="1">
          <mxGeometry x="263.05" y="639.21" width="12" height="12" as="geometry" />
        </mxCell>
        <mxCell id="juJ2ZIPSlug3HuvlYxke-130" value="" style="rhombus;whiteSpace=wrap;html=1;fillColor=#B9E0A5;strokeColor=#97D077;" vertex="1" parent="1">
          <mxGeometry x="210.62" y="675" width="12" height="12" as="geometry" />
        </mxCell>
        <mxCell id="juJ2ZIPSlug3HuvlYxke-131" value="" style="rhombus;whiteSpace=wrap;html=1;fillColor=#B9E0A5;strokeColor=#97D077;" vertex="1" parent="1">
          <mxGeometry x="302" y="698" width="12" height="12" as="geometry" />
        </mxCell>
        <mxCell id="juJ2ZIPSlug3HuvlYxke-132" value="" style="rhombus;whiteSpace=wrap;html=1;fillColor=#B9E0A5;strokeColor=#97D077;" vertex="1" parent="1">
          <mxGeometry x="334" y="639.21" width="12" height="12" as="geometry" />
        </mxCell>
        <mxCell id="juJ2ZIPSlug3HuvlYxke-133" value="" style="endArrow=classic;html=1;rounded=0;exitX=0.425;exitY=1.022;exitDx=0;exitDy=0;exitPerimeter=0;entryX=0;entryY=0;entryDx=0;entryDy=0;strokeColor=#6C8EBF;dashed=1;" edge="1" parent="1" source="juJ2ZIPSlug3HuvlYxke-112" target="juJ2ZIPSlug3HuvlYxke-106">
          <mxGeometry width="50" height="50" relative="1" as="geometry">
            <mxPoint x="520" y="770" as="sourcePoint" />
            <mxPoint x="570" y="720" as="targetPoint" />
          </mxGeometry>
        </mxCell>
        <mxCell id="juJ2ZIPSlug3HuvlYxke-134" value="" style="endArrow=classic;html=1;rounded=0;exitX=0.835;exitY=0.888;exitDx=0;exitDy=0;exitPerimeter=0;entryX=0;entryY=0;entryDx=0;entryDy=0;dashed=1;strokeColor=#6C8EBF;" edge="1" parent="1" source="juJ2ZIPSlug3HuvlYxke-113" target="juJ2ZIPSlug3HuvlYxke-104">
          <mxGeometry width="50" height="50" relative="1" as="geometry">
            <mxPoint x="190" y="920" as="sourcePoint" />
            <mxPoint x="240" y="870" as="targetPoint" />
          </mxGeometry>
        </mxCell>
        <mxCell id="juJ2ZIPSlug3HuvlYxke-135" value="" style="ellipse;whiteSpace=wrap;html=1;aspect=fixed;" vertex="1" parent="1">
          <mxGeometry x="330" y="320" as="geometry" />
        </mxCell>
        <mxCell id="juJ2ZIPSlug3HuvlYxke-136" style="rounded=0;orthogonalLoop=1;jettySize=auto;html=1;entryX=0;entryY=0.5;entryDx=0;entryDy=0;strokeWidth=2;fillColor=#dae8fc;strokeColor=#6c8ebf;" edge="1" parent="1" source="juJ2ZIPSlug3HuvlYxke-138" target="juJ2ZIPSlug3HuvlYxke-10">
          <mxGeometry relative="1" as="geometry" />
        </mxCell>
        <mxCell id="juJ2ZIPSlug3HuvlYxke-137" style="rounded=0;orthogonalLoop=1;jettySize=auto;html=1;entryX=0.5;entryY=0;entryDx=0;entryDy=0;fillColor=#ffe6cc;strokeColor=#d79b00;strokeWidth=2;" edge="1" parent="1" source="juJ2ZIPSlug3HuvlYxke-138" target="juJ2ZIPSlug3HuvlYxke-50">
          <mxGeometry relative="1" as="geometry" />
        </mxCell>
        <mxCell id="juJ2ZIPSlug3HuvlYxke-138" value="" style="ellipse;whiteSpace=wrap;html=1;aspect=fixed;fillColor=#000000;" vertex="1" parent="1">
          <mxGeometry x="374.5" y="412.28" width="4" height="4" as="geometry" />
        </mxCell>
        <mxCell id="juJ2ZIPSlug3HuvlYxke-142" value="" style="rhombus;whiteSpace=wrap;html=1;fillColor=#B9E0A5;strokeColor=#97D077;" vertex="1" parent="1">
          <mxGeometry x="302" y="656" width="12" height="12" as="geometry" />
        </mxCell>
        <mxCell id="juJ2ZIPSlug3HuvlYxke-144" value="" style="endArrow=classic;html=1;rounded=0;exitX=1.044;exitY=0.307;exitDx=0;exitDy=0;exitPerimeter=0;strokeColor=#7EA6E0;strokeWidth=2;dashed=1;" edge="1" parent="1">
          <mxGeometry width="50" height="50" relative="1" as="geometry">
            <mxPoint x="1073.05" y="654.11" as="sourcePoint" />
            <mxPoint x="1113.1" y="654.21" as="targetPoint" />
          </mxGeometry>
        </mxCell>
        <mxCell id="juJ2ZIPSlug3HuvlYxke-145" value="&lt;b&gt;&lt;font style=&quot;font-size: 14px;&quot; face=&quot;Times New Roman&quot;&gt;Traing-&lt;/font&gt;&lt;/b&gt;&lt;b&gt;&lt;font style=&quot;font-size: 14px;&quot; face=&quot;Times New Roman&quot;&gt;Stage two&lt;/font&gt;&lt;/b&gt;" style="text;html=1;align=center;verticalAlign=middle;whiteSpace=wrap;rounded=0;" vertex="1" parent="1">
          <mxGeometry x="1130.05" y="639.21" width="92.2" height="30" as="geometry" />
        </mxCell>
        <mxCell id="juJ2ZIPSlug3HuvlYxke-148" value="&lt;font face=&quot;Times New Roman&quot; style=&quot;font-size: 20px;&quot;&gt;&lt;b&gt;T&lt;/b&gt;&lt;/font&gt;" style="text;html=1;align=center;verticalAlign=middle;resizable=0;points=[];autosize=1;strokeColor=none;fillColor=none;" vertex="1" parent="1">
          <mxGeometry x="510" y="380.98" width="31" height="36" as="geometry" />
        </mxCell>
      </root>
    </mxGraphModel>
  </diagram>
</mxfile>
